<?xml version="1.0" encoding="UTF-8" standalone="no"?> <!-- Created with Inkscape (http://www.inkscape.org/) --> <svg xmlns:dc="http://purl.org/dc/elements/1.1/" xmlns:cc="http://creativecommons.org/ns#" xmlns:rdf="http://www.w3.org/1999/02/22-rdf-syntax-ns#" xmlns:svg="http://www.w3.org/2000/svg" xmlns="http://www.w3.org/2000/svg" xmlns:sodipodi="http://sodipodi.sourceforge.net/DTD/sodipodi-0.dtd" xmlns:inkscape="http://www.inkscape.org/namespaces/inkscape" version="1.1" id="svg2" xml:space="preserve" width="842.70007" height="301.2052" viewBox="0 0 842.70005 301.2052" sodipodi:docname="djo Logo + BV.svg" inkscape:version="0.92.5 (2060ec1f9f, 2020-04-08)"><metadata id="metadata8"></metadata><defs id="defs6"></defs><g id="g10" inkscape:groupmode="layer" inkscape:label="ink_ext_XXXXXX" transform="matrix(1.3333333,0,0,-1.3333333,-107.37455,379.26399)"><g id="g12" transform="scale(0.1)"><path d="m 5535.11,1559.01 c -6.86,0 -12.7,-2.37 -17.34,-7.03 -4.66,-4.64 -7.02,-10.62 -7.02,-17.76 v -203.34 c 0,-15.19 -3.9,-28.69 -11.58,-40.15 -7.75,-11.54 -18.51,-20.79 -32.01,-27.46 -13.59,-6.73 -29.43,-10.14 -47.08,-10.14 -18.24,0 -34.68,3.42 -48.85,10.17 -14.05,6.67 -25.17,15.91 -33.05,27.46 -7.82,11.45 -11.78,24.94 -11.78,40.12 v 203.34 c 0,7.1 -2.27,13.06 -6.75,17.71 -4.51,4.69 -10.43,7.08 -17.61,7.08 -7.14,0 -13.12,-2.37 -17.78,-7.03 -4.65,-4.64 -7.01,-10.62 -7.01,-17.76 v -203.34 c 0,-23.99 6.17,-45.56 18.33,-64.09 12.11,-18.48 29.19,-33.17 50.76,-43.66 21.45,-10.42 46.26,-15.71 73.74,-15.71 26.93,0 51.17,5.29 72.07,15.73 20.97,10.49 37.6,25.19 49.44,43.68 11.86,18.52 17.88,40.08 17.88,64.05 v 203.34 c 0,7.09 -2.18,13.03 -6.48,17.65 -4.38,4.73 -10.4,7.14 -17.88,7.14" style="fill:#414042;fill-opacity:1;fill-rule:nonzero;stroke:none" id="path14" inkscape:connector-curvature="0"></path><path d="m 4522.28,1559.01 c -6.85,0 -12.69,-2.37 -17.35,-7.03 -4.65,-4.65 -7.01,-10.63 -7.01,-17.76 v -231.13 l -186.67,247.2 c -5.11,5.79 -11.51,8.72 -19.03,8.72 -6.85,0 -12.68,-2.37 -17.33,-7.02 -4.66,-4.64 -7.03,-10.63 -7.03,-17.77 v -295.11 c 0,-7.14 2.36,-13.11 7.02,-17.77 4.67,-4.66 10.51,-7.02 17.34,-7.02 7.14,0 13.12,2.36 17.79,7.02 v 0 c 4.65,4.67 7.01,10.64 7.01,17.77 v 230.71 l 186.45,-246.96 c 2.19,-2.93 5.2,-5.12 8.94,-6.55 3.47,-1.32 6.8,-1.99 9.87,-1.99 7.16,0 13.09,2.38 17.61,7.08 4.48,4.66 6.75,10.61 6.75,17.71 v 295.11 c 0,7.11 -2.27,13.07 -6.75,17.71 -4.51,4.69 -10.44,7.08 -17.61,7.08" style="fill:#414042;fill-opacity:1;fill-rule:nonzero;stroke:none" id="path16" inkscape:connector-curvature="0"></path><path d="m 6344.1,1513.4 c -15.56,15.84 -34.29,28.26 -55.69,36.91 -21.35,8.64 -45.06,13.01 -70.46,13.01 -25.7,0 -49.55,-4.37 -70.91,-13.01 -21.4,-8.65 -40.06,-21.07 -55.47,-36.92 -15.38,-15.8 -27.55,-34.66 -36.19,-56.04 -8.64,-21.34 -13.01,-45.05 -13.01,-70.47 0,-25.72 4.37,-49.57 13.01,-70.9 8.61,-21.34 20.79,-40.2 36.19,-56.05 15.43,-15.86 34.09,-28.29 55.47,-36.92 21.37,-8.62 45.23,-12.99 70.91,-12.99 25.38,0 49.09,4.37 70.46,12.99 21.38,8.63 40.12,21.05 55.69,36.91 15.53,15.84 27.78,34.7 36.42,56.06 8.63,21.38 13,45.23 13,70.9 0,25.36 -4.37,49.07 -13,70.47 -8.67,21.4 -20.91,40.26 -36.42,56.05 z m 1.13,-126.52 c 0,-18.67 -3.1,-36.14 -9.21,-51.94 -6.09,-15.77 -14.99,-29.72 -26.44,-41.47 -11.5,-11.76 -25.19,-21.1 -40.7,-27.75 -15.48,-6.63 -32.62,-10 -50.93,-10 -18.62,0 -35.9,3.37 -51.37,10 -15.5,6.64 -29.03,15.97 -40.22,27.72 -11.21,11.76 -20.13,25.73 -26.52,41.56 -6.38,15.79 -9.62,33.24 -9.62,51.88 0,18.35 3.24,35.73 9.62,51.68 6.39,15.94 15.31,30 26.52,41.76 11.19,11.74 24.7,20.99 40.19,27.48 15.5,6.52 32.79,9.82 51.4,9.82 18.3,0 35.45,-3.3 50.96,-9.81 15.49,-6.51 29.17,-15.77 40.66,-27.52 11.47,-11.75 20.37,-25.78 26.44,-41.68 6.12,-15.95 9.22,-33.35 9.22,-51.73" style="fill:#414042;fill-opacity:1;fill-rule:nonzero;stroke:none" id="path18" inkscape:connector-curvature="0"></path><path d="m 7119.55,1248.89 -123.59,293.66 c -4.03,10.76 -12.07,16.46 -23.24,16.46 -10.51,0 -18.5,-5.62 -23.18,-16.31 l -122.73,-292.83 c -3.76,-8.15 -3.32,-16.18 1.3,-23.86 4.58,-7.65 11.68,-11.69 20.53,-11.69 4.46,0 8.87,1.28 13.11,3.82 v 0.01 c 4.33,2.58 7.57,6.34 9.66,11.22 l 25.14,61.21 h 152.64 l 24.87,-61.27 c 2.06,-4.83 5.3,-8.59 9.63,-11.16 4.22,-2.54 8.77,-3.83 13.53,-3.83 8.93,0 15.82,3.68 20.48,10.94 4.61,7.16 5.25,15.08 1.85,23.63 z m -205.64,83.94 59.4,144.62 58.72,-144.62 z" style="fill:#414042;fill-opacity:1;fill-rule:nonzero;stroke:none" id="path20" inkscape:connector-curvature="0"></path><path d="m 6700.33,1544.25 c -17.2,9.79 -37.02,14.76 -58.9,14.76 h -86.17 c -7.14,0 -13.11,-2.37 -17.75,-7.02 -4.67,-4.64 -7.03,-10.62 -7.03,-17.77 v -295.11 c 0,-7.14 2.36,-13.12 7.02,-17.77 4.65,-4.66 10.63,-7.02 17.76,-7.02 7.17,0 13.11,2.38 17.63,7.08 4.47,4.67 6.74,10.62 6.74,17.71 v 92.83 h 61.8 c 21.86,0 41.66,4.8 58.86,14.28 17.25,9.51 30.82,22.87 40.37,39.71 9.49,16.79 14.31,36.39 14.31,58.25 0,22.41 -4.81,42.43 -14.3,59.51 -9.53,17.12 -23.1,30.76 -40.34,40.56 z m 6.79,-100.07 c 0,-12.73 -2.81,-24.24 -8.33,-34.2 -5.48,-9.89 -13.28,-17.68 -23.17,-23.17 -9.94,-5.51 -21.44,-8.31 -34.19,-8.31 h -61.8 v 133.94 h 61.8 c 12.72,0 24.19,-2.93 34.11,-8.71 9.94,-5.77 17.75,-13.79 23.24,-23.83 5.53,-10.11 8.34,-22.13 8.34,-35.72" style="fill:#414042;fill-opacity:1;fill-rule:nonzero;stroke:none" id="path22" inkscape:connector-curvature="0"></path><path d="m 4090.17,1559.01 c -7.13,0 -13.11,-2.37 -17.76,-7.02 -4.66,-4.64 -7.03,-10.63 -7.03,-17.77 v -295.11 c 0,-7.14 2.36,-13.11 7.02,-17.77 4.67,-4.66 10.65,-7.02 17.77,-7.02 7.16,0 13.08,2.37 17.61,7.07 l 0.01,0.01 c 4.48,4.66 6.75,10.61 6.75,17.71 v 295.11 c 0,7.11 -2.27,13.07 -6.75,17.71 -4.52,4.69 -10.45,7.08 -17.62,7.08" style="fill:#414042;fill-opacity:1;fill-rule:nonzero;stroke:none" id="path24" inkscape:connector-curvature="0"></path><path d="m 5123.25,1512.44 c 7.11,0 13,2.2 17.51,6.54 4.55,4.38 6.86,9.94 6.86,16.53 0,6.87 -2.31,12.58 -6.87,16.97 -4.5,4.33 -10.39,6.53 -17.5,6.53 h -196.88 c -7.14,0 -13.12,-2.37 -17.76,-7.02 -4.66,-4.64 -7.03,-10.63 -7.03,-17.77 v -295.11 c 0,-7.14 2.36,-13.11 7.03,-17.77 4.66,-4.66 10.63,-7.02 17.76,-7.02 h 196.88 c 7.13,0 13.02,2.2 17.5,6.53 4.56,4.38 6.87,10.09 6.87,16.96 0,6.6 -2.31,12.15 -6.86,16.54 -4.5,4.34 -10.39,6.54 -17.51,6.54 h -172.51 v 103.79 h 123.4 c 7.11,0 13,2.2 17.51,6.52 4.55,4.38 6.86,9.94 6.86,16.54 0,6.87 -2.31,12.57 -6.87,16.97 -4.52,4.33 -10.41,6.53 -17.5,6.53 h -123.4 v 101.2 h 172.51" style="fill:#414042;fill-opacity:1;fill-rule:nonzero;stroke:none" id="path26" inkscape:connector-curvature="0"></path><path d="m 5871.33,1356.53 c 1.16,0.55 2.3,1.12 3.43,1.7 17.25,8.93 30.9,21.47 40.6,37.27 9.7,15.81 14.61,34.07 14.61,54.28 0,21.32 -4.9,40.44 -14.57,56.79 -9.69,16.4 -23.35,29.39 -40.59,38.6 -17.19,9.18 -36.97,13.84 -58.82,13.84 h -78.4 c -7.13,0 -13.12,-2.37 -17.78,-7.03 -4.66,-4.65 -7.01,-10.63 -7.01,-17.76 v -295.11 c 0,-7.13 2.35,-13.1 7.01,-17.77 4.68,-4.66 10.66,-7.02 17.78,-7.02 7.16,0 13.09,2.38 17.61,7.08 4.48,4.67 6.76,10.62 6.76,17.71 v 105.74 h 54.03 c 1.81,0 3.61,0.03 5.39,0.09 l 73.91,-118.88 c 2.67,-4.01 5.77,-7 9.19,-8.86 3.47,-1.92 7.62,-2.88 12.33,-2.88 10.08,0 17.6,4.19 21.74,12.12 h 0.01 c 4.15,7.97 3.37,16.59 -2.31,25.6 z m -20.78,42.42 c -9.87,-4.99 -21.49,-7.53 -34.56,-7.53 h -54.03 v 121.02 h 54.03 c 13.05,0 24.65,-2.66 34.48,-7.92 9.75,-5.21 17.54,-12.67 23.16,-22.16 5.62,-9.52 8.49,-20.48 8.49,-32.58 0,-11.2 -2.84,-21.32 -8.41,-30.1 -5.62,-8.81 -13.41,-15.79 -23.16,-20.73" style="fill:#414042;fill-opacity:1;fill-rule:nonzero;stroke:none" id="path28" inkscape:connector-curvature="0"></path><path d="m 4230.62,2075.99 c -7.17,0 -13.09,-2.38 -17.62,-7.08 -4.47,-4.66 -6.74,-10.62 -6.74,-17.72 v -217.57 c 0,-11.87 -2.52,-22.52 -7.47,-31.63 -4.94,-9.06 -11.83,-16.29 -20.48,-21.48 -8.65,-5.19 -18.73,-7.82 -29.98,-7.82 -10.96,0 -20.81,2.62 -29.3,7.81 -8.54,5.19 -15.44,12.44 -20.53,21.54 -5.08,9.07 -7.65,19.7 -7.65,31.58 0,7.11 -2.27,13.07 -6.76,17.74 -4.54,4.69 -10.46,7.06 -17.61,7.06 -7.13,0 -13.11,-2.35 -17.77,-7.01 -4.66,-4.66 -7.02,-10.64 -7.02,-17.79 0,-20.43 4.6,-38.94 13.67,-55.01 9.08,-16.09 21.86,-28.85 37.96,-37.95 16.07,-9.08 34.57,-13.68 55.01,-13.68 20.73,0 39.32,4.6 55.25,13.69 15.94,9.09 28.71,21.85 37.93,37.92 9.23,16.08 13.91,34.6 13.91,55.03 v 217.57 c 0,7.14 -2.37,13.12 -7.03,17.78 -4.65,4.65 -10.63,7.02 -17.77,7.02" style="fill:#414042;fill-opacity:1;fill-rule:nonzero;stroke:none" id="path30" inkscape:connector-curvature="0"></path><path d="m 4666.6,2075.99 c -6.84,0 -12.68,-2.37 -17.34,-7.02 -4.66,-4.67 -7.03,-10.65 -7.03,-17.78 v -203.34 c 0,-15.19 -3.89,-28.7 -11.58,-40.14 -7.72,-11.55 -18.49,-20.78 -32.01,-27.46 -13.57,-6.73 -29.41,-10.14 -47.07,-10.14 -18.26,0 -34.69,3.42 -48.85,10.16 -14.07,6.68 -25.18,15.93 -33.05,27.48 -7.81,11.43 -11.77,24.93 -11.77,40.1 v 203.34 c 0,7.1 -2.27,13.06 -6.76,17.73 -4.54,4.69 -10.46,7.07 -17.61,7.07 -7.13,0 -13.11,-2.37 -17.77,-7.02 -4.66,-4.66 -7.02,-10.64 -7.02,-17.78 v -203.34 c 0,-23.99 6.16,-45.55 18.33,-64.08 12.15,-18.51 29.23,-33.2 50.76,-43.66 21.43,-10.42 46.24,-15.7 73.74,-15.7 26.95,0 51.19,5.28 72.06,15.72 20.96,10.47 37.6,25.16 49.45,43.68 11.87,18.54 17.89,40.08 17.89,64.04 v 203.34 c 0,7.07 -2.18,13.01 -6.49,17.67 -4.39,4.73 -10.41,7.13 -17.88,7.13" style="fill:#414042;fill-opacity:1;fill-rule:nonzero;stroke:none" id="path32" inkscape:connector-curvature="0"></path><path d="m 4999.19,1726.98 c 19.85,0 39.21,3.12 57.53,9.27 h 0.01 c 18.38,6.18 35.44,16.02 50.53,29.07 3.21,2.49 5.4,5.37 6.51,8.55 0.51,1.41 0.89,2.9 1.15,4.44 l 0.4,-0.08 v 109.26 c 0,7.13 -2.29,13.03 -6.81,17.56 -4.53,4.51 -10.44,6.8 -17.56,6.8 h -81.43 c -7.03,0 -12.95,-2.09 -17.59,-6.21 -4.78,-4.24 -7.2,-9.62 -7.2,-16 0,-6.38 2.42,-11.76 7.2,-16.01 4.65,-4.12 10.57,-6.21 17.59,-6.21 h 57.92 v -73.59 c -8.71,-5.5 -17.7,-9.99 -26.84,-13.43 -12.81,-4.83 -26.74,-7.28 -41.41,-7.28 -16.84,0 -32.87,3.36 -47.65,9.98 -14.8,6.65 -27.99,16.04 -39.18,27.95 -11.22,11.89 -20.15,25.95 -26.54,41.79 -6.38,15.77 -9.6,32.94 -9.6,51.02 0,17.77 3.22,34.72 9.59,50.36 6.39,15.68 15.32,29.67 26.55,41.59 11.23,11.92 24.43,21.47 39.24,28.4 14.74,6.88 30.76,10.37 47.59,10.37 17.75,0 32.53,-2.36 43.89,-7.01 11.44,-4.69 22.58,-11.7 33.24,-20.94 5.06,-4.07 10.62,-6.09 16.26,-5.86 5.68,0.16 10.61,2.02 14.64,5.53 4.14,3.59 6.42,8.17 6.67,12.87 0.64,2.54 1.03,4.92 1.2,7.19 0.18,2.7 -0.38,5.48 -1.67,8.25 -1.29,2.78 -3.38,5.26 -6.07,7.27 -16.37,13.44 -33.09,23.32 -49.68,29.34 -16.62,6.02 -36.3,9.07 -58.48,9.07 -24.01,0 -46.6,-4.6 -67.16,-13.7 -20.51,-9.09 -38.77,-21.86 -54.28,-37.96 -15.53,-16.11 -27.77,-35.03 -36.39,-56.23 -8.63,-21.23 -13.01,-44.29 -13.01,-68.54 0,-24.57 4.45,-47.85 13.23,-69.2 8.76,-21.34 20.99,-40.32 36.38,-56.44 15.39,-16.12 33.67,-28.82 54.33,-37.76 20.68,-8.94 43.19,-13.48 66.9,-13.48" style="fill:#414042;fill-opacity:1;fill-rule:nonzero;stroke:none" id="path34" inkscape:connector-curvature="0"></path><path d="m 5873.77,1733.29 c 3.44,-1.33 6.76,-1.99 9.87,-1.99 7.17,0 13.09,2.37 17.61,7.07 4.48,4.66 6.74,10.62 6.74,17.72 v 295.1 c 0,7.1 -2.26,13.06 -6.75,17.73 -4.52,4.69 -10.44,7.07 -17.6,7.07 -6.85,0 -12.68,-2.36 -17.34,-7.02 -4.66,-4.66 -7.02,-10.64 -7.02,-17.78 v -231.14 l -186.68,247.22 c -5.09,5.78 -11.5,8.72 -19.02,8.72 -6.83,0 -12.67,-2.36 -17.34,-7.02 -4.66,-4.67 -7.02,-10.65 -7.02,-17.78 v -295.1 c 0,-7.13 2.36,-13.12 7.02,-17.78 4.66,-4.66 10.49,-7.01 17.34,-7.01 7.13,0 13.12,2.35 17.78,7.01 4.66,4.67 7.02,10.65 7.02,17.78 v 230.7 l 186.46,-246.96 c 2.18,-2.91 5.19,-5.11 8.93,-6.54" style="fill:#414042;fill-opacity:1;fill-rule:nonzero;stroke:none" id="path36" inkscape:connector-curvature="0"></path><path d="m 5475.23,1731.3 c 7.11,0 12.99,2.2 17.5,6.52 4.56,4.38 6.87,10.09 6.87,16.97 0,6.58 -2.31,12.15 -6.88,16.56 -4.53,4.33 -10.41,6.51 -17.49,6.51 h -172.51 v 103.78 h 123.4 c 7.1,0 13,2.2 17.51,6.55 4.55,4.37 6.85,9.94 6.85,16.53 0,6.85 -2.3,12.55 -6.86,16.97 -4.5,4.33 -10.4,6.52 -17.5,6.52 h -123.4 v 101.21 h 172.51 c 7.11,0 12.99,2.2 17.5,6.53 4.56,4.38 6.87,9.94 6.87,16.54 0,6.86 -2.31,12.57 -6.87,16.97 -4.52,4.33 -10.4,6.53 -17.5,6.53 h -196.88 c -7.13,0 -13.11,-2.37 -17.77,-7.02 -4.66,-4.66 -7.02,-10.64 -7.02,-17.78 v -295.1 c 0,-7.14 2.36,-13.12 7.02,-17.78 4.65,-4.66 10.62,-7.01 17.77,-7.01 h 196.88" style="fill:#414042;fill-opacity:1;fill-rule:nonzero;stroke:none" id="path38" inkscape:connector-curvature="0"></path><path d="m 6163.66,2075.99 h -77.55 c -7.12,0 -13.1,-2.36 -17.77,-7.02 -4.66,-4.67 -7.02,-10.65 -7.02,-17.78 v -295.1 c 0,-7.13 2.36,-13.12 7.02,-17.78 4.66,-4.66 10.64,-7.01 17.77,-7.01 h 77.55 c 25.11,0 48.39,4.23 69.18,12.57 20.82,8.36 39.11,20.41 54.37,35.81 15.26,15.41 27.16,33.85 35.36,54.81 8.2,20.9 12.35,44.24 12.35,69.37 0,25.12 -4.15,48.38 -12.35,69.14 -8.2,20.82 -20.1,39.19 -35.36,54.59 -15.25,15.41 -33.55,27.46 -54.37,35.82 -20.79,8.34 -44.06,12.58 -69.18,12.58 z m 107.55,-105.84 c 10.52,-18.98 15.86,-41.29 15.86,-66.29 0,-24.75 -5.34,-46.98 -15.86,-66.09 -10.51,-19.07 -25.15,-34.27 -43.52,-45.2 -18.37,-10.9 -39.91,-16.43 -64.03,-16.43 h -53.18 v 254.99 h 53.18 c 24.12,0 45.67,-5.46 64.05,-16.23 18.36,-10.76 32.99,-25.82 43.5,-44.75" style="fill:#414042;fill-opacity:1;fill-rule:nonzero;stroke:none" id="path40" inkscape:connector-curvature="0"></path><path d="m 4921.13,2257.08 c 21.44,-10.42 46.25,-15.71 73.74,-15.71 26.94,0 51.18,5.3 72.07,15.73 20.96,10.48 37.59,25.17 49.44,43.68 11.87,18.55 17.89,40.1 17.89,64.04 v 203.35 c 0,7.06 -2.18,13 -6.49,17.66 -4.38,4.73 -10.39,7.12 -17.88,7.12 -6.86,0 -12.7,-2.36 -17.33,-7 -4.67,-4.67 -7.03,-10.65 -7.03,-17.78 v -203.35 c 0,-15.18 -3.9,-28.69 -11.58,-40.14 -7.74,-11.54 -18.51,-20.79 -32.02,-27.47 -13.56,-6.72 -29.4,-10.12 -47.07,-10.12 -18.26,0 -34.7,3.41 -48.85,10.15 -14.06,6.69 -25.18,15.94 -33.05,27.47 -7.81,11.44 -11.77,24.94 -11.77,40.11 v 203.35 c 0,7.1 -2.27,13.06 -6.76,17.72 -4.52,4.69 -10.44,7.06 -17.61,7.06 -7.15,0 -13.13,-2.36 -17.77,-7 -4.66,-4.67 -7.02,-10.65 -7.02,-17.78 v -203.35 c 0,-23.98 6.17,-45.54 18.33,-64.08 12.15,-18.5 29.22,-33.19 50.76,-43.66" style="fill:#414042;fill-opacity:1;fill-rule:nonzero;stroke:none" id="path42" inkscape:connector-curvature="0"></path><path d="m 6882.68,2248.26 h 196.89 c 7.1,0 12.98,2.21 17.5,6.54 4.55,4.37 6.85,10.08 6.85,16.97 0,6.58 -2.3,12.14 -6.86,16.55 -4.51,4.32 -10.4,6.52 -17.49,6.52 h -172.52 v 103.77 h 123.41 c 7.09,0 12.98,2.21 17.5,6.55 4.55,4.37 6.85,9.94 6.85,16.53 0,6.88 -2.3,12.59 -6.85,16.97 -4.52,4.34 -10.41,6.54 -17.5,6.54 h -123.41 v 101.18 h 172.52 c 7.1,0 12.98,2.21 17.5,6.55 4.55,4.37 6.85,9.94 6.85,16.53 0,6.86 -2.3,12.57 -6.85,16.97 -4.52,4.33 -10.4,6.52 -17.5,6.52 h -196.89 c -7.14,0 -13.12,-2.35 -17.77,-7 -4.66,-4.67 -7.02,-10.66 -7.02,-17.78 v -295.11 c 0,-7.14 2.36,-13.12 7.02,-17.77 4.66,-4.66 10.64,-7.03 17.77,-7.03" style="fill:#414042;fill-opacity:1;fill-rule:nonzero;stroke:none" id="path44" inkscape:connector-curvature="0"></path><path d="m 6655.41,2273.06 c 0,-7.17 2.45,-13.17 7.29,-17.82 4.8,-4.63 10.69,-6.98 17.5,-6.98 7.16,0 13.08,2.39 17.61,7.08 4.49,4.66 6.76,10.62 6.76,17.72 v 295.11 c 0,7.09 -2.27,13.05 -6.76,17.72 -4.52,4.69 -10.44,7.06 -17.61,7.06 -6.82,0 -12.71,-2.34 -17.51,-6.95 -4.83,-4.68 -7.28,-10.67 -7.28,-17.83 V 2445.2 h -195.12 v 122.97 c 0,7.08 -2.27,13.05 -6.75,17.72 -4.52,4.69 -10.44,7.06 -17.61,7.06 -7.13,0 -13.12,-2.35 -17.77,-7 -4.66,-4.67 -7.02,-10.66 -7.02,-17.78 v -295.11 c 0,-7.14 2.36,-13.12 7.02,-17.77 4.66,-4.66 10.65,-7.03 17.77,-7.03 7.16,0 13.08,2.39 17.61,7.08 l 0.01,0.01 c 4.47,4.66 6.74,10.61 6.74,17.71 v 127.28 h 195.12 v -127.28" style="fill:#414042;fill-opacity:1;fill-rule:nonzero;stroke:none" id="path46" inkscape:connector-curvature="0"></path><path d="m 4090.17,2248.26 h 77.55 c 25.11,0 48.39,4.24 69.18,12.58 20.81,8.35 39.1,20.4 54.38,35.82 15.25,15.4 27.15,33.84 35.37,54.81 8.19,20.93 12.34,44.27 12.34,69.36 0,25.09 -4.15,48.36 -12.35,69.15 -8.22,20.82 -20.12,39.19 -35.36,54.59 -15.27,15.4 -33.56,27.45 -54.38,35.82 -20.79,8.34 -44.07,12.56 -69.18,12.56 h -77.55 c -7.14,0 -13.11,-2.35 -17.77,-7 -4.66,-4.67 -7.02,-10.65 -7.02,-17.78 v -295.11 c 0,-7.14 2.37,-13.12 7.02,-17.77 4.67,-4.66 10.64,-7.03 17.77,-7.03 z m 24.37,44.86 v 255 h 53.18 c 24.12,0 45.67,-5.47 64.05,-16.25 18.35,-10.76 32.99,-25.82 43.5,-44.75 10.52,-18.98 15.85,-41.27 15.85,-66.29 0,-24.73 -5.33,-46.97 -15.85,-66.08 -10.52,-19.09 -25.16,-34.29 -43.52,-45.19 -18.36,-10.91 -39.9,-16.44 -64.03,-16.44 h -53.18" style="fill:#414042;fill-opacity:1;fill-rule:nonzero;stroke:none" id="path48" inkscape:connector-curvature="0"></path><path d="m 6156.76,2243.96 c 19.9,0 39.18,3.12 57.33,9.26 18.22,6.18 35.34,16 50.93,29.23 2.77,2.41 4.8,5.18 6.06,8.23 1.21,2.95 1.82,6.15 1.82,9.52 0,6.84 -2.07,12.39 -6.17,16.48 -3.98,3.98 -8.81,6.27 -14.38,6.79 -5.59,0.52 -11.21,-1.27 -16.62,-5.32 -11.97,-8.92 -24.61,-15.92 -37.55,-20.78 -12.81,-4.82 -26.75,-7.27 -41.42,-7.27 -16.85,0 -32.88,3.35 -47.62,9.97 -14.82,6.65 -28,16.05 -39.2,27.94 -11.21,11.89 -20.14,25.96 -26.54,41.81 -6.37,15.79 -9.61,32.95 -9.61,51.01 0,17.76 3.23,34.71 9.61,50.36 6.39,15.69 15.32,29.69 26.54,41.6 11.23,11.91 24.43,21.46 39.26,28.38 14.72,6.89 30.73,10.38 47.56,10.38 17.75,0 32.52,-2.35 43.9,-7.01 11.47,-4.7 22.6,-11.71 33.22,-20.94 5.1,-4.09 10.65,-5.99 16.41,-5.64 5.6,0.33 10.45,2.17 14.44,5.47 4.18,3.45 6.49,7.98 6.75,12.71 0.64,2.55 1.03,4.95 1.18,7.17 0.2,2.69 -0.36,5.47 -1.66,8.29 -1.3,2.77 -3.39,5.25 -6.07,7.25 -16.35,13.43 -33.06,23.31 -49.67,29.34 -16.63,6.02 -36.31,9.08 -58.5,9.08 -24.02,0 -46.62,-4.61 -67.14,-13.7 -20.5,-9.09 -38.76,-21.86 -54.28,-37.96 -15.51,-16.08 -27.76,-35 -36.4,-56.23 -8.63,-21.22 -13.01,-44.27 -13.01,-68.55 0,-24.56 4.45,-47.84 13.23,-69.2 8.77,-21.34 21,-40.32 36.37,-56.42 15.37,-16.12 33.66,-28.83 54.34,-37.77 20.66,-8.95 43.17,-13.48 66.89,-13.48" style="fill:#414042;fill-opacity:1;fill-rule:nonzero;stroke:none" id="path50" inkscape:connector-curvature="0"></path><path d="m 5646.62,2277.03 c 12.41,-10.49 27.13,-18.71 43.75,-24.45 16.58,-5.72 34.49,-8.62 53.25,-8.62 15.8,0 31.19,2.15 45.74,6.41 14.62,4.28 27.8,10.73 39.21,19.17 11.52,8.52 20.69,19.22 27.27,31.77 6.6,12.61 9.94,27.46 9.94,44.13 0,28.91 -9.79,52.68 -29.09,70.65 -19.11,17.75 -46.77,28.84 -82.29,32.95 -20.98,2.25 -37.39,6.24 -48.81,11.89 -11.14,5.49 -18.97,11.91 -23.28,19.1 -4.32,7.21 -6.51,15.12 -6.51,23.51 0,15.85 6.34,27.46 19.36,35.48 13.05,8.05 29.71,12.12 49.58,12.12 12.44,-0.03 23.56,-1.48 32.53,-4.91 8.55,-3.27 16.04,-7.65 22.25,-13.05 6.21,-5.4 11.41,-11.84 15.52,-19.22 3.36,-5.76 8.48,-9.78 15.2,-11.96 6.81,-2.23 13.44,-1.62 19.83,1.93 5.65,3.53 8.97,8.57 9.87,14.99 0.83,6.11 -0.73,12.52 -4.67,19.09 -7.08,11.49 -15.75,21.74 -25.8,30.47 -10.12,8.75 -21.98,15.74 -35.28,20.77 -13.33,5.04 -28.9,7.59 -46.25,7.59 -22.55,0 -43.13,-3.58 -61.18,-10.63 -18.27,-7.12 -32.91,-17.64 -43.53,-31.24 -10.73,-13.76 -16.16,-30.63 -16.16,-50.13 0,-26.41 10.54,-48.91 31.36,-66.88 20.51,-17.71 49.03,-28.62 84.71,-32.42 26.22,-3.04 45.33,-10.4 56.82,-21.87 11.5,-11.52 17.1,-24.44 17.1,-39.53 0,-11.77 -3.16,-21.35 -9.63,-29.28 -6.56,-8.02 -15.42,-14.28 -26.33,-18.58 -11.09,-4.39 -23.7,-6.61 -37.48,-6.61 -12.13,0 -23.8,1.81 -34.68,5.39 -10.84,3.56 -20.21,8.34 -27.86,14.23 -7.5,5.75 -13.04,12.28 -16.44,19.38 -2.71,5.7 -6.88,10.03 -12.42,12.89 -5.64,2.9 -11.31,3.66 -16.74,2.29 -7.77,-1.69 -13.38,-5.47 -16.69,-11.23 -3.38,-5.87 -3.51,-12.48 -0.39,-19.05 6.24,-13.7 15.74,-25.99 28.22,-36.54" style="fill:#414042;fill-opacity:1;fill-rule:nonzero;stroke:none" id="path52" inkscape:connector-curvature="0"></path><path d="m 4698.05,2546.38 c 7.11,0 13,2.21 17.49,6.55 4.56,4.37 6.87,9.94 6.87,16.53 0,6.86 -2.31,12.57 -6.87,16.97 -4.49,4.33 -10.38,6.52 -17.49,6.52 h -196.89 c -7.14,0 -13.11,-2.35 -17.76,-7 -4.66,-4.66 -7.02,-10.64 -7.02,-17.78 v -295.11 c 0,-7.15 2.36,-13.13 7.02,-17.77 4.66,-4.66 10.63,-7.03 17.76,-7.03 h 196.89 c 7.11,0 13,2.21 17.49,6.54 4.56,4.37 6.87,10.08 6.87,16.97 0,6.58 -2.31,12.14 -6.87,16.54 -4.51,4.33 -10.39,6.53 -17.49,6.53 h -172.52 v 103.77 h 123.4 c 7.12,0 13.01,2.21 17.5,6.55 4.56,4.38 6.87,9.94 6.87,16.53 0,6.88 -2.31,12.58 -6.86,16.96 -4.5,4.35 -10.39,6.55 -17.51,6.55 h -123.4 v 101.18 h 172.52" style="fill:#414042;fill-opacity:1;fill-rule:nonzero;stroke:none" id="path54" inkscape:connector-curvature="0"></path><path d="M 5274.04,2546.81 H 5366 v -273.75 c 0,-6.86 2.43,-12.77 7.23,-17.56 4.8,-4.8 10.57,-7.24 17.13,-7.24 7.16,0 13.16,2.45 17.82,7.29 4.63,4.8 6.98,10.69 6.98,17.51 v 273.75 h 91.95 c 6.89,0 12.53,2.24 16.75,6.66 4.19,4.37 6.32,9.89 6.32,16.42 0,6.86 -2.15,12.47 -6.37,16.69 -4.23,4.23 -9.84,6.37 -16.7,6.37 h -233.07 c -6.85,0 -12.47,-2.14 -16.69,-6.36 -4.23,-4.24 -6.38,-9.86 -6.38,-16.7 0,-6.52 2.12,-12.04 6.31,-16.42 4.24,-4.42 9.87,-6.66 16.76,-6.66" style="fill:#414042;fill-opacity:1;fill-rule:nonzero;stroke:none" id="path56" inkscape:connector-curvature="0"></path><path d="M 3723.99,2632.52 V 1192.17 h 58 v 1440.35 h -58" style="fill:#939598;fill-opacity:1;fill-rule:nonzero;stroke:none" id="path58" inkscape:connector-curvature="0"></path><path d="m 2741.53,2431.29 -0.02,-0.04 -0.3,0.19 c 0.12,-2 0.32,-3.97 0.32,-5.99 0,-59.3 -49.62,-107.55 -110.6,-107.55 -60.99,0 -110.6,48.25 -110.6,107.55 0,59.3 49.61,107.54 110.6,107.54 22.48,0 43.39,-6.59 60.87,-17.84 l 40.46,63.51 c -29.19,18.73 -63.96,29.73 -101.33,29.73 -102.56,0 -186,-82.07 -186,-182.94 0,-100.88 83.44,-182.94 186,-182.94 41.45,0 79.64,13.57 110.6,36.2 v -36.21 h 75.4 v 601.98 h -75.4 v -413.19" style="fill:#414042;fill-opacity:1;fill-rule:nonzero;stroke:none" id="path60" inkscape:connector-curvature="0"></path><path d="m 2933.66,2260.38 c 0,-60.86 -49.62,-110.38 -110.61,-110.38 v -75.39 c 102.57,0 186,83.33 186,185.77 v 323.39 h -75.39 v -323.39" style="fill:#414042;fill-opacity:1;fill-rule:nonzero;stroke:none" id="path62" inkscape:connector-curvature="0"></path><path d="m 2937.41,2653.21 h 75.39 v 107.48 h -75.39 v -107.48" style="fill:#414042;fill-opacity:1;fill-rule:nonzero;stroke:none" id="path64" inkscape:connector-curvature="0"></path><path d="m 3285.64,2608.39 c -102.56,0 -185.99,-82.07 -185.99,-182.94 0,-100.88 83.43,-182.94 185.99,-182.94 102.56,0 186,82.06 186,182.94 0,100.87 -83.44,182.94 -186,182.94 z m 0,-290.49 c -60.98,0 -110.6,48.25 -110.6,107.55 0,59.3 49.62,107.54 110.6,107.54 60.99,0 110.61,-48.24 110.61,-107.54 0,-59.3 -49.62,-107.55 -110.61,-107.55" style="fill:#414042;fill-opacity:1;fill-rule:nonzero;stroke:none" id="path66" inkscape:connector-curvature="0"></path><path d="m 1441.41,1192.17 c -13.53,0 -27.27,1.9 -40.9,5.91 -76.84,22.56 -120.85,103.13 -98.29,179.97 l 92.62,315.54 211.07,63.23 289.25,-100.63 20.67,-42.05 c 35.33,-71.86 5.7,-158.76 -66.17,-194.08 -20.57,-10.12 -42.38,-14.91 -63.85,-14.91 -53.54,0 -105.03,29.77 -130.23,81.08 l -12.13,24.66 -62.97,-214.52 c -18.56,-63.2 -76.37,-104.2 -139.07,-104.2" style="fill:#0a4e9b;fill-opacity:1;fill-rule:nonzero;stroke:none" id="path68" inkscape:connector-curvature="0"></path><path d="m 1083.22,1606.56 c -62.39,0 -120.017,40.59 -138.845,103.43 -22.984,76.71 20.57,157.53 97.285,180.51 l 197.52,59.18 -359.512,200.66 c -69.926,39.03 -94.977,127.36 -55.945,197.28 26.55,47.56 75.906,74.36 126.754,74.36 23.918,0 48.16,-5.93 70.523,-18.41 l 288.6,-161.08 145.88,-342.33 -60.64,-206.57 -269.95,-80.89 c -13.87,-4.16 -27.89,-6.14 -41.67,-6.14" style="fill:#517936;fill-opacity:1;fill-rule:nonzero;stroke:none" id="path70" inkscape:connector-curvature="0"></path><path d="m 1394.84,1693.59 60.64,206.57 19.86,-46.6 c 2.06,-4.94 4.38,-9.76 6.95,-14.42 5.1,-9.25 11.14,-17.82 17.99,-25.61 0.03,-0.04 0.06,-0.07 0.09,-0.1 0.03,-0.04 0.05,-0.07 0.08,-0.1 16.14,-18.32 36.99,-32.68 61.16,-41.09 l 44.3,-15.42 -211.07,-63.23" style="fill:#243930;fill-opacity:1;fill-rule:nonzero;stroke:none" id="path72" inkscape:connector-curvature="0"></path><path d="m 1625.58,2066.14 -315.98,176.35 -30.97,72.68 c -31.39,73.67 2.88,158.85 76.55,190.24 18.54,7.91 37.82,11.65 56.78,11.65 56.37,0 109.97,-33.07 133.46,-88.2 l 97.01,-227.64 337.16,463.34 c 28.38,38.99 72.57,59.69 117.37,59.69 29.58,0 59.44,-9.03 85.19,-27.77 64.75,-47.11 79.05,-137.81 31.93,-202.56 L 1983.97,2177.7 1625.58,2066.14" style="fill:#faa61a;fill-opacity:1;fill-rule:nonzero;stroke:none" id="path74" inkscape:connector-curvature="0"></path><path d="m 1455.48,1900.16 -145.88,342.33 315.98,-176.35 -58.05,-18.08 c -6.84,-2.05 -13.48,-4.6 -19.87,-7.6 -16.12,-7.55 -30.47,-17.9 -42.53,-30.35 0,-0.01 -0.01,-0.01 -0.01,-0.01 -0.06,-0.06 -0.11,-0.12 -0.17,-0.18 -11.55,-11.95 -21.09,-25.94 -28.05,-41.48 -0.02,-0.05 -0.03,-0.09 -0.05,-0.13 -0.02,-0.03 -0.03,-0.05 -0.04,-0.08 -2.83,-6.34 -5.21,-12.91 -7.12,-19.65 l -14.21,-48.42" style="fill:#5a5c31;fill-opacity:1;fill-rule:nonzero;stroke:none" id="path76" inkscape:connector-curvature="0"></path><path d="m 1500.45,1813.33 c -0.03,0.03 -0.05,0.06 -0.08,0.1 0.03,-0.04 0.05,-0.07 0.08,-0.1 m -0.17,0.2 c -6.85,7.79 -12.89,16.36 -17.99,25.61 5.06,-9.16 11.09,-17.75 17.99,-25.61 m -24.94,40.03 -19.86,46.6 14.21,48.42 c -3.34,-11.86 -5.21,-24.27 -5.42,-37 -0.33,-20.35 3.59,-40.03 11.07,-58.02 m 1.47,114.67 c 0.01,0.03 0.02,0.05 0.04,0.08 -0.02,-0.03 -0.03,-0.06 -0.04,-0.08 m 0.09,0.21 c 6.96,15.54 16.5,29.53 28.05,41.48 -11.65,-12.07 -21.16,-26.11 -28.05,-41.48 m 28.22,41.66 c 0,0 0.01,0 0.01,0.01 0,-0.01 0,-0.01 -0.01,-0.01 m 42.54,30.36 c 6.39,3 13.03,5.55 19.87,7.6 l -1.37,-0.42 c -6.39,-1.99 -12.57,-4.39 -18.5,-7.18" style="fill:#28332e;fill-opacity:1;fill-rule:nonzero;stroke:none" id="path78" inkscape:connector-curvature="0"></path><path d="m 2000.48,1628.05 c -15.81,0 -31.89,2.59 -47.66,8.08 l -57.66,20.06 -117.18,238.44 205.99,283.07 220.22,68.55 c 14.34,4.46 28.86,6.59 43.13,6.59 61.8,0 119.07,-39.82 138.41,-101.94 23.8,-76.46 -18.89,-157.74 -95.35,-181.54 l -220.85,-68.75 c 61.5,-33.21 91.59,-107.04 67.89,-175.17 -20.83,-59.86 -76.95,-97.39 -136.94,-97.39" style="fill:#ffcb05;fill-opacity:1;fill-rule:nonzero;stroke:none" id="path80" inkscape:connector-curvature="0"></path><path d="m 1895.16,1656.19 -289.25,100.63 44.05,13.2 c 3.44,1.01 6.85,2.15 10.21,3.4 0.03,0.02 0.07,0.03 0.11,0.05 0.03,0.01 0.06,0.02 0.09,0.03 27.39,10.31 50.53,28.47 66.98,51.56 l 50.63,69.57 117.18,-238.44" style="fill:#2c4a3d;fill-opacity:1;fill-rule:nonzero;stroke:none" id="path82" inkscape:connector-curvature="0"></path><path d="m 1605.91,1756.82 -44.3,15.42 c -24.17,8.41 -45.02,22.77 -61.16,41.09 23.42,-26.57 56.18,-44.1 92.44,-48.21 5.48,-0.63 10.95,-0.93 16.39,-0.93 13.9,0 27.58,2 40.68,5.83 l -44.05,-13.2 m 54.26,16.6 c 0.04,0.02 0.07,0.03 0.11,0.05 -0.04,-0.02 -0.08,-0.03 -0.11,-0.05 m 0.2,0.08 c 26.05,9.82 49.18,27.09 66.12,50.38 l 0.86,1.18 c -16.45,-23.09 -39.59,-41.25 -66.98,-51.56 m -160,39.93 c -0.03,0.03 -0.06,0.06 -0.09,0.1 0.03,-0.04 0.06,-0.07 0.09,-0.1 m -18.08,25.71 c -2.57,4.66 -4.89,9.48 -6.95,14.42 l 0.52,-1.22 c 1.93,-4.53 4.08,-8.94 6.43,-13.2" style="fill:#26362f;fill-opacity:1;fill-rule:nonzero;stroke:none" id="path84" inkscape:connector-curvature="0"></path><path d="m 1649.96,1770.02 0.91,0.27 c 3.15,0.95 6.25,1.99 9.3,3.13 -3.36,-1.25 -6.77,-2.39 -10.21,-3.4 m 10.32,3.45 c 0.03,0.01 0.06,0.02 0.09,0.03 -0.03,-0.01 -0.06,-0.02 -0.09,-0.03" style="fill:#31423c;fill-opacity:1;fill-rule:nonzero;stroke:none" id="path86" inkscape:connector-curvature="0"></path><path d="m 1777.98,1894.63 -38.6,78.52 c -3.23,6.58 -6.93,12.84 -11.02,18.74 -0.02,0.03 -0.04,0.06 -0.06,0.08 -0.02,0.04 -0.05,0.07 -0.07,0.11 -12.33,17.7 -28.69,32.78 -48.31,43.73 l -54.34,30.33 358.39,111.56 -205.99,-283.07" style="fill:#f7901e;fill-opacity:1;fill-rule:nonzero;stroke:none" id="path88" inkscape:connector-curvature="0"></path><path d="m 1727.35,1825.06 c 14.1,19.78 23.29,43.18 26.04,68.36 3.88,35.5 -5.48,70.31 -25.03,98.47 4.09,-5.9 7.79,-12.16 11.02,-18.74 l 38.6,-78.52 -50.63,-69.57 m 0.95,166.91 c -0.02,0.04 -0.05,0.07 -0.07,0.11 0.02,-0.04 0.05,-0.07 0.07,-0.11" style="fill:#31423c;fill-opacity:1;fill-rule:nonzero;stroke:none" id="path90" inkscape:connector-curvature="0"></path><path d="m 1469.69,1948.58 c 1.91,6.74 4.29,13.31 7.12,19.65 -2.61,-5.86 -4.85,-11.93 -6.69,-18.2 l -0.43,-1.45 m 7.16,19.73 c 0.02,0.04 0.03,0.08 0.05,0.13 -0.02,-0.04 -0.03,-0.09 -0.05,-0.13 m 251.51,23.58 c -0.02,0.03 -0.04,0.05 -0.06,0.08 0.02,-0.02 0.04,-0.05 0.06,-0.08 m -0.13,0.19 c -26.99,38.73 -71.47,62.11 -119,62.11 -4.1,0 -8.24,-0.18 -12.38,-0.53 -10.08,-0.87 -19.89,-2.76 -29.32,-5.6 l 58.05,18.08 54.34,-30.33 c 19.62,-10.95 35.98,-26.03 48.31,-43.73 m -223.28,17.84 c 0.06,0.06 0.11,0.12 0.17,0.18 -0.06,-0.06 -0.11,-0.12 -0.17,-0.18 m 0.18,0.19 c 12.06,12.45 26.41,22.8 42.53,30.35 -15.93,-7.48 -30.34,-17.78 -42.53,-30.35" style="fill:#5b5330;fill-opacity:1;fill-rule:nonzero;stroke:none" id="path92" inkscape:connector-curvature="0"></path><path d="m 1609.28,1764.19 c -5.44,0 -10.91,0.3 -16.39,0.93 -36.26,4.11 -69.02,21.64 -92.44,48.21 -0.03,0.03 -0.05,0.06 -0.08,0.1 -0.03,0.03 -0.06,0.06 -0.09,0.1 -6.9,7.86 -12.93,16.45 -17.99,25.61 -2.35,4.26 -4.5,8.67 -6.43,13.2 l -0.52,1.22 c -7.48,17.99 -11.4,37.67 -11.07,58.02 0.21,12.73 2.08,25.14 5.42,37 l 0.43,1.45 c 1.84,6.27 4.08,12.34 6.69,18.2 0.01,0.02 0.02,0.05 0.04,0.08 0.02,0.04 0.03,0.09 0.05,0.13 6.89,15.37 16.4,29.41 28.05,41.48 0.06,0.06 0.11,0.12 0.17,0.18 0.01,0 0.01,0 0.01,0.01 12.19,12.57 26.6,22.87 42.53,30.35 5.93,2.79 12.11,5.19 18.5,7.18 l 1.37,0.42 c 9.43,2.84 19.24,4.73 29.32,5.6 4.14,0.35 8.28,0.53 12.38,0.53 47.53,0 92.01,-23.38 119,-62.11 0.02,-0.04 0.05,-0.07 0.07,-0.11 0.02,-0.03 0.04,-0.05 0.06,-0.08 19.55,-28.16 28.91,-62.97 25.03,-98.47 -2.75,-25.18 -11.94,-48.58 -26.04,-68.36 l -0.86,-1.18 c -16.94,-23.29 -40.07,-40.56 -66.12,-50.38 -0.03,-0.01 -0.06,-0.02 -0.09,-0.03 -0.04,-0.02 -0.07,-0.03 -0.11,-0.05 -3.05,-1.14 -6.15,-2.18 -9.3,-3.13 l -0.91,-0.27 c -13.1,-3.83 -26.78,-5.83 -40.68,-5.83" style="fill:#29312e;fill-opacity:1;fill-rule:nonzero;stroke:none" id="path94" inkscape:connector-curvature="0"></path><path d="m 3816.85,594.211 c 14.01,0 26.5,2.91 37.45,8.73 10.95,5.821 19.49,13.868 25.64,24.149 6.15,10.281 9.22,22.012 9.22,35.199 0,14.742 -3.89,26.77 -11.67,36.082 -7.78,9.309 -18,15.609 -30.68,18.91 8.83,4.27 15.89,10.328 21.17,18.188 5.29,7.851 7.93,16.73 7.93,26.621 0,11.64 -2.84,21.922 -8.5,30.84 -5.67,8.922 -13.35,15.898 -23.05,20.949 -9.7,5.043 -20.79,7.562 -33.28,7.562 h -69.14 c -4.04,0 -7.35,-1.312 -9.94,-3.921 -2.6,-2.622 -3.89,-5.969 -3.89,-10.04 v -199.3 c 0,-4.078 1.34,-7.418 4.03,-10.039 2.69,-2.621 6.05,-3.93 10.08,-3.93 z m -61.37,107.359 h 61.37 c 8.83,0 16.71,-1.5 23.62,-4.511 6.91,-3.008 12.29,-7.418 16.13,-13.231 3.84,-5.816 5.77,-12.996 5.77,-21.539 0,-8.918 -1.93,-16.527 -5.77,-22.828 -3.84,-6.313 -9.22,-11.109 -16.13,-14.41 -6.91,-3.301 -14.79,-4.942 -23.62,-4.942 h -61.37 z m 0,93.981 h 55.6 c 11.14,0 20.31,-2.762 27.52,-8.289 7.2,-5.532 10.8,-13.922 10.8,-25.172 0,-11.449 -3.6,-20.07 -10.8,-25.891 -7.21,-5.82 -16.38,-8.73 -27.52,-8.73 h -55.6 z m 375.69,-195.66 c 13.64,6.879 24.3,16.379 31.98,28.507 7.68,12.122 11.52,26.043 11.52,41.75 V 807.48 c 0,4.071 -1.2,7.418 -3.6,10.04 -2.4,2.609 -5.71,3.921 -9.94,3.921 -3.84,0 -7.05,-1.312 -9.65,-3.921 -2.59,-2.622 -3.89,-5.969 -3.89,-10.04 V 670.148 c 0,-10.859 -2.73,-20.418 -8.21,-28.66 -5.47,-8.238 -12.96,-14.738 -22.47,-19.488 -9.51,-4.762 -20.41,-7.129 -32.7,-7.129 -12.68,0 -23.96,2.367 -33.85,7.129 -9.9,4.75 -17.63,11.25 -23.2,19.488 -5.57,8.242 -8.35,17.801 -8.35,28.66 V 807.48 c 0,4.071 -1.25,7.418 -3.75,10.04 -2.5,2.609 -5.76,3.921 -9.79,3.921 -4.04,0 -7.35,-1.312 -9.94,-3.921 -2.6,-2.622 -3.89,-5.969 -3.89,-10.04 V 670.148 c 0,-15.707 3.93,-29.628 11.81,-41.75 7.87,-12.128 18.82,-21.628 32.84,-28.507 14.02,-6.891 30.06,-10.332 48.12,-10.332 17.67,0 33.32,3.441 46.96,10.332 z m 182.23,-1.75 c 2.59,2.621 3.89,5.961 3.89,10.039 v 164.09 l 129.65,-173.399 c 1.15,-1.562 2.74,-2.723 4.75,-3.492 2.02,-0.777 3.89,-1.168 5.62,-1.168 4.03,0 7.3,1.309 9.8,3.93 2.49,2.621 3.74,5.961 3.74,10.039 v 199.3 c 0,4.071 -1.25,7.418 -3.74,10.04 -2.5,2.609 -5.77,3.921 -9.8,3.921 -3.84,0 -7.06,-1.312 -9.65,-3.921 -2.59,-2.622 -3.89,-5.969 -3.89,-10.04 V 643.09 L 4314.12,816.5 c -2.88,3.289 -6.44,4.941 -10.66,4.941 -3.84,0 -7.06,-1.312 -9.65,-3.921 -2.6,-2.622 -3.89,-5.969 -3.89,-10.04 v -199.3 c 0,-4.078 1.29,-7.418 3.89,-10.039 2.59,-2.621 5.81,-3.93 9.65,-3.93 4.03,0 7.35,1.309 9.94,3.93 z m 338.38,-3.93 c 16.52,0 31.59,2.769 45.23,8.289 13.64,5.531 25.45,13.391 35.44,23.57 9.99,10.18 17.67,22.211 23.05,36.078 5.38,13.864 8.07,29.141 8.07,45.821 0,16.679 -2.69,31.91 -8.07,45.679 -5.38,13.774 -13.06,25.75 -23.05,35.942 -9.99,10.18 -21.8,18.031 -35.44,23.558 -13.64,5.532 -28.71,8.293 -45.23,8.293 h -51.86 c -4.03,0 -7.35,-1.312 -9.94,-3.921 -2.59,-2.622 -3.89,-5.969 -3.89,-10.04 v -199.3 c 0,-4.078 1.3,-7.418 3.89,-10.039 2.59,-2.621 5.91,-3.93 9.94,-3.93 z m -38.32,202.5 h 38.32 c 16.71,0 31.45,-3.781 44.23,-11.34 12.77,-7.57 22.8,-18 30.1,-31.281 7.3,-13.289 10.95,-28.66 10.95,-46.121 0,-17.258 -3.65,-32.578 -10.95,-45.969 -7.3,-13.379 -17.33,-23.898 -30.1,-31.559 -12.78,-7.671 -27.52,-11.5 -44.23,-11.5 h -38.32 z m 400.19,-202.5 c 4.03,0 7.29,1.211 9.79,3.641 2.5,2.418 3.75,5.57 3.75,9.457 0,3.679 -1.25,6.73 -3.75,9.16 -2.5,2.422 -5.76,3.64 -9.79,3.64 h -118.13 v 75.641 h 85.28 c 4.03,0 7.3,1.211 9.8,3.641 2.49,2.418 3.74,5.48 3.74,9.168 0,3.871 -1.25,7.023 -3.74,9.453 -2.5,2.418 -5.77,3.636 -9.8,3.636 h -85.28 v 73.903 h 118.13 c 4.03,0 7.29,1.211 9.79,3.64 2.5,2.418 3.75,5.469 3.75,9.161 0,3.878 -1.25,7.027 -3.75,9.457 -2.5,2.421 -5.76,3.632 -9.79,3.632 h -131.67 c -4.03,0 -7.35,-1.312 -9.94,-3.921 -2.59,-2.622 -3.89,-5.969 -3.89,-10.04 v -199.3 c 0,-4.078 1.3,-7.418 3.89,-10.039 2.59,-2.621 5.91,-3.93 9.94,-3.93 z m 213.34,1.309 c 9.51,2.812 17.96,6.98 25.35,12.511 7.39,5.528 13.21,12.367 17.43,20.508 4.23,8.152 6.34,17.652 6.34,28.52 0,18.812 -6.19,34.043 -18.58,45.679 -12.39,11.633 -30.21,18.813 -53.45,21.532 -14.4,1.55 -25.59,4.308 -33.56,8.289 -7.97,3.972 -13.54,8.632 -16.71,13.961 -3.17,5.339 -4.76,11.109 -4.76,17.32 0,11.629 4.76,20.41 14.27,26.332 9.5,5.906 21.46,8.769 35.87,8.578 8.25,0 15.41,-1.16 21.46,-3.488 6.05,-2.332 11.28,-5.434 15.7,-9.313 4.42,-3.879 8.07,-8.437 10.95,-13.679 1.92,-3.301 4.8,-5.571 8.64,-6.829 3.84,-1.269 7.49,-0.929 10.95,1.008 3.07,1.942 4.85,4.66 5.33,8.153 0.48,3.488 -0.43,7.179 -2.74,11.058 -4.61,7.559 -10.18,14.199 -16.71,19.93 -6.53,5.719 -14.11,10.23 -22.76,13.531 -8.64,3.289 -18.63,4.938 -29.96,4.938 -14.79,0 -28.09,-2.321 -39.9,-6.977 -11.82,-4.66 -21.13,-11.402 -27.95,-20.223 -6.82,-8.828 -10.23,-19.539 -10.23,-32.148 0,-17.07 6.67,-31.422 20.03,-43.063 13.34,-11.636 31.73,-18.718 55.17,-21.238 18.24,-2.14 31.45,-7.32 39.61,-15.57 8.17,-8.238 12.25,-17.789 12.25,-28.66 0,-8.532 -2.36,-15.711 -7.06,-21.532 -4.71,-5.808 -10.95,-10.277 -18.73,-13.378 -7.78,-3.098 -16.47,-4.649 -26.07,-4.649 -8.46,0 -16.47,1.258 -24.06,3.777 -7.59,2.524 -14.07,5.864 -19.45,10.043 -5.38,4.161 -9.31,8.868 -11.81,14.11 -1.54,3.289 -3.89,5.769 -7.06,7.418 -3.17,1.64 -6.29,2.082 -9.36,1.312 -4.42,-0.98 -7.54,-3.062 -9.36,-6.261 -1.83,-3.2 -1.88,-6.649 -0.15,-10.329 4.04,-8.921 10.09,-16.832 18.15,-23.711 8.07,-6.89 17.53,-12.218 28.38,-16 10.85,-3.789 22.42,-5.679 34.72,-5.679 10.37,0 20.31,1.41 29.82,4.219 z m 225.01,0.871 c 2.02,1.461 3.7,3.64 5.04,6.55 l 85.57,199.59 c 2.11,4.848 2.16,9.207 0.15,13.098 -2.02,3.871 -5.72,5.812 -11.1,5.812 -3.27,0 -5.86,-0.632 -7.78,-1.89 -1.92,-1.262 -3.55,-3.539 -4.89,-6.832 l -76.64,-183.297 h 4.03 l -75.77,183.59 c -2.31,5.617 -6.53,8.429 -12.68,8.429 -5.57,0 -9.36,-1.941 -11.38,-5.812 -2.02,-3.891 -1.78,-8.93 0.72,-15.129 l 84.99,-197.559 c 2.5,-5.82 6.63,-8.73 12.39,-8.73 2.88,0 5.33,0.73 7.35,2.18 z m 329.74,-2.18 c 4.03,0 7.3,1.211 9.8,3.641 2.49,2.418 3.74,5.57 3.74,9.457 0,3.679 -1.25,6.73 -3.74,9.16 -2.5,2.422 -5.77,3.64 -9.8,3.64 h -118.12 v 75.641 h 85.28 c 4.03,0 7.29,1.211 9.79,3.641 2.5,2.418 3.75,5.48 3.75,9.168 0,3.871 -1.25,7.023 -3.75,9.453 -2.5,2.418 -5.76,3.636 -9.79,3.636 h -85.28 v 73.903 h 118.12 c 4.03,0 7.3,1.211 9.8,3.64 2.49,2.418 3.74,5.469 3.74,9.161 0,3.878 -1.25,7.027 -3.74,9.457 -2.5,2.421 -5.77,3.632 -9.8,3.632 h -131.67 c -4.03,0 -7.34,-1.312 -9.94,-3.921 -2.59,-2.622 -3.88,-5.969 -3.88,-10.04 v -199.3 c 0,-4.078 1.29,-7.418 3.88,-10.039 2.6,-2.621 5.91,-3.93 9.94,-3.93 z m 136.56,3.93 c 2.5,2.621 3.75,5.961 3.75,10.039 v 74.191 h 38.89 c 14.22,0 26.89,2.91 38.03,8.731 11.14,5.82 19.83,13.859 26.08,24.148 6.24,10.281 9.36,22.012 9.36,35.199 0,13.973 -3.12,26.281 -9.36,36.949 -6.25,10.672 -14.94,19.012 -26.08,25.024 -11.14,6.008 -23.81,9.019 -38.03,9.019 h -52.43 c -4.04,0 -7.35,-1.312 -9.94,-3.921 -2.6,-2.622 -3.89,-5.969 -3.89,-10.04 v -199.3 c 0,-4.078 1.29,-7.418 3.89,-10.039 2.59,-2.621 5.9,-3.93 9.94,-3.93 4.03,0 7.29,1.309 9.79,3.93 z m 122.16,2.757 c 2.31,4.461 1.82,9.313 -1.44,14.551 l -48.69,79.141 -27.08,-7.559 53.01,-86.133 c 1.54,-2.32 3.26,-4.019 5.19,-5.089 1.91,-1.071 4.22,-1.598 6.91,-1.598 5.76,0 9.8,2.23 12.1,6.687 z m -118.41,194.653 h 38.89 c 9.22,0 17.33,-1.891 24.35,-5.672 7.01,-3.789 12.53,-9.117 16.56,-16.008 4.04,-6.883 6.06,-14.691 6.06,-23.422 0,-8.14 -2.02,-15.418 -6.06,-21.82 -4.03,-6.399 -9.55,-11.399 -16.56,-14.981 -7.02,-3.589 -15.13,-5.386 -24.35,-5.386 h -38.89 z m 299.63,-201.34 c 14.02,0 26.51,2.91 37.46,8.73 10.95,5.821 19.49,13.868 25.64,24.149 6.14,10.281 9.22,22.012 9.22,35.199 0,14.742 -3.89,26.77 -11.67,36.082 -7.78,9.309 -18.01,15.609 -30.68,18.91 8.83,4.27 15.89,10.328 21.17,18.188 5.28,7.851 7.92,16.73 7.92,26.621 0,11.64 -2.83,21.922 -8.49,30.84 -5.67,8.922 -13.36,15.898 -23.05,20.949 -9.7,5.043 -20.8,7.562 -33.28,7.562 h -69.15 c -4.03,0 -7.34,-1.312 -9.94,-3.921 -2.59,-2.622 -3.89,-5.969 -3.89,-10.04 v -199.3 c 0,-4.078 1.35,-7.418 4.04,-10.039 2.69,-2.621 6.05,-3.93 10.08,-3.93 z m -61.37,107.359 h 61.37 c 8.84,0 16.71,-1.5 23.63,-4.511 6.91,-3.008 12.29,-7.418 16.13,-13.231 3.84,-5.816 5.76,-12.996 5.76,-21.539 0,-8.918 -1.92,-16.527 -5.76,-22.828 -3.84,-6.313 -9.22,-11.109 -16.13,-14.41 -6.92,-3.301 -14.79,-4.942 -23.63,-4.942 h -61.37 z m 0,93.981 h 55.61 c 11.14,0 20.31,-2.762 27.52,-8.289 7.2,-5.532 10.8,-13.922 10.8,-25.172 0,-11.449 -3.6,-20.07 -10.8,-25.891 -7.21,-5.82 -16.38,-8.73 -27.52,-8.73 h -55.61 z m 224.58,-199.16 c 2.4,1.461 4.18,3.539 5.33,6.257 l 74.91,184.172 h -8.35 l 74.04,-184.172 c 1.15,-2.718 2.93,-4.796 5.33,-6.257 2.4,-1.45 4.94,-2.18 7.64,-2.18 4.99,0 8.78,2.039 11.38,6.109 2.59,4.078 2.92,8.539 1.01,13.391 l -82.69,198.418 c -2.31,6.211 -6.63,9.312 -12.97,9.312 -5.95,0 -10.27,-3.101 -12.96,-9.312 l -82.11,-197.84 c -2.12,-4.66 -1.88,-9.168 0.72,-13.527 2.59,-4.371 6.38,-6.551 11.38,-6.551 2.49,0 4.94,0.73 7.34,2.18 z m 144.49,49.32 -10.37,22.988 h -114.38 l -10.66,-22.988 z m 141.89,-47.57 c 2.59,2.621 3.89,5.961 3.89,10.039 v 164.09 l 129.65,-173.399 c 1.15,-1.562 2.74,-2.723 4.75,-3.492 2.02,-0.777 3.89,-1.168 5.62,-1.168 4.04,0 7.3,1.309 9.8,3.93 2.49,2.621 3.74,5.961 3.74,10.039 v 199.3 c 0,4.071 -1.25,7.418 -3.74,10.04 -2.5,2.609 -5.76,3.921 -9.8,3.921 -3.84,0 -7.06,-1.312 -9.65,-3.921 -2.59,-2.622 -3.89,-5.969 -3.89,-10.04 V 643.09 L 6671.99,816.5 c -2.88,3.289 -6.44,4.941 -10.66,4.941 -3.84,0 -7.06,-1.312 -9.65,-3.921 -2.59,-2.622 -3.89,-5.969 -3.89,-10.04 v -199.3 c 0,-4.078 1.3,-7.418 3.89,-10.039 2.59,-2.621 5.81,-3.93 9.65,-3.93 4.04,0 7.35,1.309 9.94,3.93 z m 338.38,-3.93 c 16.52,0 31.6,2.769 45.24,8.289 13.63,5.531 25.45,13.391 35.43,23.57 9.99,10.18 17.67,22.211 23.05,36.078 5.38,13.864 8.07,29.141 8.07,45.821 0,16.679 -2.69,31.91 -8.07,45.679 -5.38,13.774 -13.06,25.75 -23.05,35.942 -9.98,10.18 -21.8,18.031 -35.43,23.558 -13.64,5.532 -28.72,8.293 -45.24,8.293 h -51.86 c -4.03,0 -7.34,-1.312 -9.94,-3.921 -2.59,-2.622 -3.89,-5.969 -3.89,-10.04 v -199.3 c 0,-4.078 1.3,-7.418 3.89,-10.039 2.6,-2.621 5.91,-3.93 9.94,-3.93 z m -38.31,202.5 h 38.31 c 16.71,0 31.45,-3.781 44.23,-11.34 12.77,-7.57 22.8,-18 30.11,-31.281 7.29,-13.289 10.94,-28.66 10.94,-46.121 0,-17.258 -3.65,-32.578 -10.94,-45.969 -7.31,-13.379 -17.34,-23.898 -30.11,-31.559 -12.78,-7.671 -27.52,-11.5 -44.23,-11.5 h -38.31 v 177.77" style="fill:#939598;fill-opacity:1;fill-rule:nonzero;stroke:none" id="path96" inkscape:connector-curvature="0"></path><path d="m 3816.85,594.211 v -4.121 c 14.58,0 27.79,3.039 39.38,9.211 11.56,6.129 20.73,14.75 27.25,25.668 6.55,10.953 9.81,23.5 9.8,37.32 0.02,15.441 -4.13,28.582 -12.63,38.723 -8.32,9.988 -19.41,16.789 -32.8,20.258 l -1.04,-3.989 1.79,-3.711 c 9.44,4.551 17.12,11.141 22.8,19.602 v 0 c 5.74,8.519 8.64,18.297 8.63,28.918 0.01,12.301 -3.03,23.441 -9.14,33.051 v 0 c -6.05,9.531 -14.34,17.05 -24.63,22.39 v 0.008 c -10.35,5.383 -22.14,8.031 -35.18,8.02 h -69.14 c -4.91,0.05 -9.54,-1.719 -12.87,-5.137 v 0 c -3.39,-3.371 -5.12,-8.012 -5.08,-12.942 v -199.3 c -0.05,-4.969 1.77,-9.641 5.28,-12.989 v 0 c 3.41,-3.382 8.04,-5.14 12.95,-5.101 h 74.63 v 4.121 4.121 h -74.63 c -3.15,0.039 -5.24,0.898 -7.2,2.758 h -0.01 c -1.88,1.89 -2.74,3.91 -2.78,7.09 v 199.3 c 0.04,3.211 0.9,5.27 2.69,7.141 v 0 c 1.86,1.809 3.86,2.66 7.02,2.699 h 69.14 c 11.94,0 22.32,-2.39 31.38,-7.101 v 0 c 9.1,-4.739 16.18,-11.188 21.47,-19.5 v 0 c 5.22,-8.239 7.85,-17.649 7.86,-28.629 -0.02,-9.16 -2.4,-17.129 -7.23,-24.32 l -0.03,-0.051 0.04,0.051 c -4.89,-7.258 -11.33,-12.79 -19.55,-16.782 l -10.1,-4.867 10.85,-2.82 c 11.97,-3.129 21.33,-8.942 28.56,-17.571 7.06,-8.468 10.69,-19.402 10.71,-33.441 -0.01,-12.551 -2.9,-23.48 -8.64,-33.09 -5.77,-9.64 -13.69,-17.109 -24.03,-22.621 -10.3,-5.469 -22.07,-8.238 -35.52,-8.246 z m -61.37,107.359 v -4.121 h 61.37 c 8.36,0 15.65,-1.418 21.98,-4.168 v 0.008 c 6.28,-2.75 10.93,-6.598 14.34,-11.738 l -0.01,0.008 c 3.32,-5.039 5.08,-11.34 5.09,-19.27 -0.01,-8.34 -1.78,-15.141 -5.16,-20.687 v 0 c -3.45,-5.633 -8.14,-9.832 -14.39,-12.832 v 0 c -6.3,-3 -13.53,-4.54 -21.85,-4.54 h -57.25 v 77.34 h -4.12 v -4.121 4.121 h -4.12 v -85.582 h 65.49 c 9.33,-0.008 17.86,1.75 25.39,5.34 l 0.04,0.024 -0.04,-0.024 c 7.58,3.602 13.64,9 17.88,15.981 v 0 c 4.3,7.05 6.37,15.48 6.37,24.98 0,9.141 -2.08,17.199 -6.45,23.801 v 0.012 c -4.28,6.5 -10.38,11.468 -17.93,14.738 v 0 c -7.5,3.269 -15.97,4.851 -25.26,4.851 h -65.49 v -4.121 z m 0,93.981 v -4.121 h 55.6 c 10.48,-0.008 18.64,-2.559 25.01,-7.442 6.04,-4.699 9.13,-11.476 9.19,-21.898 -0.06,-10.629 -3.18,-17.711 -9.27,-22.692 -6.38,-5.136 -14.49,-7.789 -24.93,-7.808 h -51.48 v 63.961 h -4.12 v -4.121 4.121 h -4.12 v -72.199 h 59.72 c 11.84,-0.02 22.08,3.136 30.11,9.636 8.31,6.66 12.39,16.84 12.33,29.102 0.07,12.07 -4.05,22.082 -12.41,28.441 -8.04,6.168 -18.23,9.149 -30.03,9.141 h -59.72 v -4.121 z m 375.69,-195.66 1.86,-3.68 c 14.22,7.168 25.52,17.219 33.6,29.98 8.12,12.809 12.18,27.579 12.17,43.957 V 807.48 c 0.03,4.86 -1.53,9.418 -4.69,12.821 l -0.02,0.019 0.02,-0.019 c -3.22,3.57 -7.94,5.308 -12.98,5.258 -4.77,0.05 -9.29,-1.77 -12.58,-5.137 v 0 c -3.38,-3.371 -5.12,-8.012 -5.08,-12.942 V 670.148 c -0.01,-10.179 -2.52,-18.828 -7.52,-26.378 v 0 c -5.07,-7.629 -11.94,-13.61 -20.88,-18.09 -8.87,-4.43 -19.1,-6.692 -30.86,-6.692 -12.17,0 -22.8,2.274 -32.07,6.723 v 0 c -9.33,4.488 -16.42,10.48 -21.56,18.09 v 0 c -5.09,7.539 -7.64,16.179 -7.65,26.347 V 807.48 c 0.03,4.899 -1.62,9.489 -4.88,12.879 h -0.01 c -3.25,3.469 -7.87,5.25 -12.77,5.2 -4.91,0.05 -9.54,-1.719 -12.87,-5.137 -3.39,-3.371 -5.12,-8.012 -5.08,-12.942 V 670.148 c -0.02,-16.386 4.14,-31.187 12.47,-44 v 0 c 8.29,-12.769 19.88,-22.796 34.49,-29.957 14.65,-7.203 31.35,-10.761 49.93,-10.75 18.2,-0.011 34.53,3.559 48.82,10.77 l -1.86,3.68 -1.86,3.668 c -12.99,-6.547 -27.96,-9.879 -45.1,-9.879 -17.54,0 -32.91,3.34 -46.3,9.898 -13.44,6.613 -23.74,15.594 -31.2,27.063 h -0.01 c -7.42,11.441 -11.13,24.48 -11.14,39.507 V 807.48 c 0.04,3.211 0.9,5.27 2.69,7.141 1.86,1.809 3.86,2.66 7.02,2.699 3.16,-0.039 5.07,-0.879 6.81,-2.648 v 0 c 1.72,-1.852 2.57,-3.942 2.61,-7.192 V 670.148 c -0.02,-11.558 3,-22.027 9.06,-30.968 v 0.011 c 5.99,-8.89 14.36,-15.89 24.82,-20.91 l 0.04,-0.011 -0.04,0.011 c 10.52,-5.051 22.45,-7.531 35.64,-7.531 12.81,0 24.39,2.48 34.54,7.559 10.08,5.031 18.19,12.043 24.06,20.902 v 0 c 5.95,8.937 8.92,19.391 8.9,30.937 V 807.48 c 0.04,3.211 0.9,5.27 2.7,7.141 v 0 c 1.9,1.859 3.81,2.66 6.72,2.699 3.41,-0.039 5.32,-0.922 6.91,-2.59 v 0 c 1.64,-1.832 2.48,-3.968 2.51,-7.25 V 670.148 c -0.01,-15.046 -3.64,-28.109 -10.88,-39.546 -7.29,-11.481 -17.31,-20.442 -30.36,-27.043 z m 182.23,-1.75 2.93,-2.903 c 3.38,3.371 5.12,8.012 5.08,12.942 v 151.699 l 122.23,-163.481 -0.01,0.012 c 1.64,-2.23 3.96,-3.879 6.59,-4.879 h -0.01 c 2.39,-0.922 4.75,-1.441 7.1,-1.441 4.91,-0.039 9.52,1.742 12.78,5.211 v 0 c 3.27,3.39 4.92,7.98 4.88,12.879 v 199.3 c 0.04,4.899 -1.61,9.489 -4.88,12.879 v 0 c -3.26,3.469 -7.87,5.25 -12.78,5.2 -4.77,0.05 -9.29,-1.77 -12.58,-5.137 v 0 c -3.39,-3.371 -5.12,-8.012 -5.08,-12.942 v -152 l -122.32,163.61 -0.11,0.121 c -3.49,4.078 -8.45,6.41 -13.76,6.348 -4.78,0.05 -9.29,-1.77 -12.58,-5.137 -3.39,-3.371 -5.12,-8.012 -5.08,-12.942 v -199.3 c -0.04,-4.93 1.69,-9.571 5.08,-12.942 3.29,-3.379 7.8,-5.187 12.58,-5.148 4.91,-0.039 9.53,1.73 12.87,5.148 l -2.93,2.903 -2.93,2.898 c -1.85,-1.82 -3.85,-2.668 -7.01,-2.707 -2.91,0.047 -4.83,0.848 -6.72,2.707 -1.8,1.871 -2.66,3.922 -2.7,7.141 v 199.3 c 0.04,3.211 0.9,5.27 2.7,7.141 1.89,1.859 3.81,2.66 6.72,2.699 3.13,-0.05 5.29,-1.019 7.56,-3.531 l 3.1,2.711 -3.3,-2.469 137.07,-183.332 V 807.48 c 0.04,3.211 0.9,5.27 2.7,7.141 v 0 c 1.9,1.859 3.81,2.66 6.72,2.699 3.16,-0.039 5.07,-0.879 6.82,-2.648 h -0.01 c 1.72,-1.852 2.58,-3.942 2.61,-7.192 v -199.3 c -0.03,-3.25 -0.89,-5.352 -2.61,-7.2 l 0.01,0.008 c -1.75,-1.769 -3.66,-2.609 -6.82,-2.656 -1.11,0 -2.49,0.258 -4.14,0.887 v 0 c -1.41,0.551 -2.26,1.222 -2.92,2.101 L 4313.17,784.672 V 608.18 c -0.04,-3.219 -0.9,-5.27 -2.7,-7.141 z m 338.38,-3.93 v -4.121 c 16.98,0 32.6,2.851 46.78,8.601 14.13,5.719 26.45,13.911 36.83,24.5 10.39,10.579 18.39,23.11 23.95,37.469 v 0 c 5.58,14.391 8.35,30.192 8.35,47.309 0,17.121 -2.77,32.883 -8.35,47.179 v 0 c -5.57,14.262 -13.57,26.743 -23.95,37.321 v 0 c -10.38,10.59 -22.7,18.781 -36.83,24.5 v 0 c -14.18,5.75 -29.8,8.601 -46.78,8.59 h -51.86 c -4.91,0.05 -9.53,-1.719 -12.87,-5.137 -3.38,-3.371 -5.12,-8.012 -5.08,-12.942 v -199.3 c -0.04,-4.93 1.7,-9.571 5.08,-12.942 3.34,-3.418 7.96,-5.187 12.87,-5.148 h 51.86 v 4.121 4.121 h -51.86 c -3.16,0.039 -5.16,0.887 -7.01,2.707 -1.8,1.871 -2.66,3.922 -2.7,7.141 v 199.3 c 0.04,3.211 0.9,5.27 2.7,7.141 1.85,1.809 3.85,2.66 7.01,2.699 h 51.86 c 16.06,0 30.59,-2.679 43.69,-7.988 v 0 c 13.14,-5.332 24.45,-12.852 34.04,-22.633 l 0.34,-0.347 -0.34,0.347 c 9.59,-9.789 16.96,-21.258 22.15,-34.551 v 0.012 c 5.17,-13.25 7.79,-27.949 7.79,-44.191 0,-16.239 -2.62,-30.989 -7.79,-44.328 v 0 c -5.2,-13.391 -12.56,-24.903 -22.15,-34.68 -9.59,-9.781 -20.9,-17.301 -34.04,-22.641 -13.1,-5.3 -27.63,-7.988 -43.69,-7.988 z m -38.32,202.5 v -4.121 h 38.32 c 16.1,0 30.03,-3.621 42.13,-10.77 v 0 c 12.15,-7.211 21.61,-17.031 28.59,-29.718 v 0.007 c 6.93,-12.621 10.44,-27.25 10.44,-44.14 0,-16.688 -3.51,-31.27 -10.44,-43.989 l -0.31,-0.558 0.31,0.558 c -6.99,-12.789 -16.46,-22.71 -28.61,-30.011 -12.1,-7.25 -26.02,-10.899 -42.11,-10.91 h -34.2 v 173.652 h -4.12 v -4.121 4.121 h -4.12 V 614.82 h 42.44 c 17.33,-0.011 32.89,4 46.35,12.078 13.38,8.024 23.98,19.153 31.6,33.133 v 0 c 7.66,14.039 11.46,30.098 11.45,47.938 0.01,18.031 -3.78,34.14 -11.45,48.101 h -0.01 c -7.62,13.891 -18.22,24.918 -31.61,32.84 v 0 c -13.46,7.981 -29,11.93 -46.33,11.922 h -42.44 v -4.121 z m 400.19,-202.5 v -4.121 c 4.83,-0.031 9.36,1.558 12.66,4.801 3.33,3.179 5.04,7.668 5,12.418 0.04,4.601 -1.72,8.98 -4.99,12.113 l -0.01,0.008 c -3.3,3.23 -7.83,4.832 -12.66,4.8 h -114.01 v 67.399 h 81.16 c 4.83,-0.027 9.37,1.562 12.67,4.812 3.28,3.129 5.04,7.5 4.99,12.118 0.05,4.742 -1.67,9.222 -4.99,12.402 l -0.01,0.008 c -3.29,3.242 -7.82,4.832 -12.66,4.801 h -81.16 v 65.66 h 114.01 c 4.83,-0.039 9.36,1.558 12.66,4.8 3.28,3.129 5.04,7.508 5,12.122 0.04,4.75 -1.67,9.226 -4.99,12.41 l -0.01,0.008 c -3.3,3.23 -7.83,4.832 -12.66,4.789 h -131.67 c -4.91,0.05 -9.53,-1.719 -12.87,-5.137 -3.39,-3.371 -5.12,-8.012 -5.08,-12.942 v -199.3 c -0.04,-4.93 1.69,-9.571 5.08,-12.942 3.34,-3.418 7.96,-5.187 12.87,-5.148 h 131.67 v 4.121 4.121 h -131.67 c -3.16,0.039 -5.16,0.887 -7.01,2.707 -1.8,1.871 -2.66,3.922 -2.7,7.141 v 199.3 c 0.04,3.211 0.9,5.27 2.7,7.141 1.85,1.809 3.85,2.66 7.01,2.699 h 131.67 c 3.23,-0.031 5.22,-0.859 6.92,-2.468 v 0 c 1.66,-1.672 2.45,-3.493 2.5,-6.5 -0.05,-2.762 -0.79,-4.493 -2.5,-6.211 -1.7,-1.61 -3.69,-2.43 -6.92,-2.469 H 4891.4 v -82.141 h 89.4 c 3.23,-0.043 5.23,-0.871 6.93,-2.48 l -0.01,0.008 c 1.67,-1.68 2.46,-3.489 2.5,-6.5 -0.04,-2.77 -0.79,-4.5 -2.49,-6.207 -1.7,-1.614 -3.69,-2.442 -6.93,-2.481 h -89.4 v -83.883 h 122.25 c 3.23,-0.039 5.22,-0.867 6.92,-2.476 v 0.008 c 1.71,-1.719 2.45,-3.461 2.5,-6.211 -0.05,-3.02 -0.84,-4.84 -2.5,-6.508 -1.7,-1.61 -3.69,-2.43 -6.92,-2.469 z m 213.34,1.309 1.17,-3.95 c 9.93,2.93 18.84,7.328 26.65,13.16 7.87,5.879 14.12,13.231 18.62,21.918 v 0 c 4.57,8.813 6.8,19.012 6.8,30.411 0.05,19.703 -6.63,36.293 -19.88,48.679 -13.24,12.434 -31.99,19.844 -55.79,22.621 h -0.02 -0.02 c -14.11,1.512 -24.89,4.243 -32.16,7.891 v 0 c -7.53,3.738 -12.41,7.969 -15.01,12.379 v 0 c -2.8,4.73 -4.17,9.703 -4.17,15.211 0.11,10.519 3.92,17.469 12.31,22.832 v 0 c 8.41,5.226 19.1,7.957 32.35,7.969 l 1.29,-0.012 h 0.03 0.03 c 7.87,0 14.52,-1.109 19.98,-3.219 5.65,-2.172 10.44,-5.031 14.46,-8.558 v 0 c 4.06,-3.571 7.4,-7.731 10.06,-12.563 l 0.02,-0.039 0.03,-0.051 c 2.38,-4.16 6.26,-7.179 10.92,-8.679 v 0 c 1.88,-0.622 3.81,-0.95 5.73,-0.95 2.97,-0.011 5.88,0.801 8.52,2.289 l 0.09,0.051 0.09,0.059 c 3.96,2.429 6.64,6.48 7.21,11.07 v 0 l 0.16,2.383 c 0.01,3.848 -1.25,7.656 -3.43,11.34 l -0.01,0.008 -0.02,0.031 c -4.82,7.91 -10.67,14.89 -17.51,20.89 v 0 c -6.92,6.047 -14.95,10.821 -24.01,14.278 v 0 c -9.21,3.511 -19.7,5.211 -31.43,5.211 -15.22,0 -29.05,-2.391 -41.41,-7.27 -12.39,-4.871 -22.39,-12.058 -29.7,-21.531 -7.42,-9.59 -11.11,-21.34 -11.09,-34.668 -0.05,-18.16 7.3,-33.922 21.44,-46.172 14.15,-12.34 33.43,-19.648 57.44,-22.23 l -0.04,0.011 c 17.74,-2.07 30.01,-7.109 37.17,-14.379 h -0.01 c 7.51,-7.632 11.02,-15.941 11.06,-25.761 -0.02,-7.789 -2.09,-13.879 -6.14,-18.942 v 0.012 c -4.24,-5.23 -9.83,-9.27 -17.05,-12.148 -7.24,-2.891 -15.39,-4.364 -24.55,-4.364 -8.05,0 -15.61,1.192 -22.76,3.571 v 0 c -7.22,2.402 -13.27,5.543 -18.22,9.382 v 0 c -4.97,3.848 -8.44,8.047 -10.62,12.629 l 0.02,-0.031 c -1.87,4.051 -4.96,7.301 -8.89,9.332 h -0.01 c -2.64,1.379 -5.45,2.149 -8.3,2.149 -1.34,0 -2.67,-0.168 -3.97,-0.5 l 1.01,-3.989 -0.89,4.02 c -5.19,-1.102 -9.61,-3.879 -12.05,-8.242 v 0 c -1.26,-2.188 -1.96,-4.661 -1.95,-7.161 0,-2.378 0.6,-4.726 1.65,-6.957 l 3.73,1.75 -3.75,-1.703 c 4.29,-9.5 10.75,-17.918 19.23,-25.148 8.48,-7.238 18.41,-12.82 29.7,-16.75 11.3,-3.949 23.35,-5.91 36.07,-5.91 10.74,0 21.09,1.461 30.99,4.39 l -1.17,3.95 -1.17,3.949 c -9.12,-2.688 -18.65,-4.047 -28.65,-4.047 -11.87,0 -22.97,1.828 -33.36,5.449 -10.42,3.629 -19.41,8.711 -27.06,15.238 -7.66,6.539 -13.3,13.942 -17.07,22.282 l -0.02,0.031 -0.01,0.019 c -0.63,1.348 -0.87,2.469 -0.87,3.457 0.01,1.043 0.25,1.981 0.86,3.082 h 0.01 c 1.2,2.04 3.02,3.418 6.67,4.27 l 0.05,0.012 0.07,0.019 1.95,0.25 c 1.38,-0.011 2.83,-0.359 4.5,-1.222 v 0 c 2.4,-1.27 4.02,-2.957 5.23,-5.508 l 0.01,-0.02 c 2.81,-5.91 7.22,-11.121 13.01,-15.601 l 0.08,-0.059 -0.08,0.059 c 5.8,-4.5 12.72,-8.051 20.67,-10.692 8.02,-2.668 16.5,-4 25.36,-3.988 10.04,-0.012 19.28,1.621 27.6,4.941 8.33,3.321 15.22,8.207 20.4,14.618 v 0 c 5.35,6.589 8,14.839 7.98,24.121 0.04,11.922 -4.62,22.711 -13.44,31.558 v 0 c -9.17,9.223 -23.32,14.551 -42.06,16.762 h -0.02 l -0.02,0.012 c -22.87,2.457 -40.37,9.308 -52.91,20.238 v 0 c -12.56,11.031 -18.55,23.98 -18.61,39.961 0.02,11.879 3.15,21.559 9.37,29.629 6.33,8.18 14.96,14.469 26.2,18.91 11.26,4.43 24.03,6.691 38.39,6.691 10.93,0 20.42,-1.589 28.49,-4.671 v 0 c 8.23,-3.149 15.37,-7.399 21.52,-12.782 v 0 c 6.21,-5.449 11.51,-11.758 15.91,-18.976 l 3.51,2.148 -3.54,-2.109 c 1.63,-2.75 2.28,-5.09 2.28,-7.129 l -0.08,-1.262 v 0 c -0.39,-2.39 -1.27,-3.781 -3.45,-5.219 l 2.2,-3.492 -2.02,3.602 c -1.55,-0.871 -2.97,-1.231 -4.48,-1.242 -0.98,0 -2.02,0.171 -3.16,0.543 v 0 c -3.03,1.027 -4.92,2.558 -6.37,4.988 l -3.56,-2.07 3.61,1.992 c -3.1,5.636 -7.07,10.59 -11.84,14.777 v 0.012 c -4.81,4.219 -10.49,7.57 -16.94,10.051 -6.64,2.558 -14.3,3.769 -22.94,3.769 v -4.121 l 0.05,4.121 -1.4,0.008 c -14.36,0 -26.69,-2.988 -36.7,-9.207 v 0 c -10.62,-6.492 -16.32,-17.082 -16.21,-29.832 -0.01,-6.91 1.8,-13.488 5.34,-19.418 v 0 c 3.73,-6.274 9.99,-11.352 18.41,-15.551 v 0 c 8.67,-4.312 20.26,-7.109 34.96,-8.699 h -0.04 c 22.68,-2.652 39.57,-9.59 51.11,-20.442 11.53,-10.89 17.23,-24.75 17.28,-42.671 0,-10.34 -2,-19.137 -5.88,-26.618 h 0.01 c -3.96,-7.613 -9.33,-13.929 -16.25,-19.113 -6.98,-5.219 -14.97,-9.168 -24.05,-11.859 z m 225.01,0.871 2.41,-3.34 c 2.73,1.98 4.81,4.789 6.37,8.16 l 0.03,0.051 85.59,199.648 -0.01,-0.019 c 1.26,2.89 1.96,5.8 1.96,8.699 0.01,2.762 -0.66,5.48 -1.94,7.93 v 0.011 c -1.34,2.598 -3.44,4.77 -6.03,6.11 -2.58,1.347 -5.54,1.929 -8.72,1.918 -3.78,0 -7.2,-0.707 -10.04,-2.559 v 0 c -2.94,-1.961 -4.92,-4.988 -6.45,-8.73 l 0.01,0.039 -79.02,-189.008 h 10.22 6.16 l -78.12,189.281 v -0.012 c -1.38,3.399 -3.53,6.27 -6.43,8.192 -2.89,1.937 -6.37,2.808 -10.06,2.797 -3.25,0 -6.26,-0.559 -8.9,-1.899 -2.63,-1.332 -4.78,-3.5 -6.13,-6.129 l -0.01,-0.011 c -1.23,-2.36 -1.82,-5.04 -1.81,-7.79 0,-3.429 0.85,-6.992 2.37,-10.769 l 0.02,-0.051 85.01,-197.601 v 0.011 c 1.46,-3.429 3.56,-6.308 6.38,-8.289 2.81,-2 6.23,-2.953 9.79,-2.941 3.56,-0.012 6.98,0.941 9.76,2.961 l -2.41,3.34 -2.41,3.347 c -1.26,-0.886 -2.74,-1.386 -4.94,-1.406 -2.2,0.02 -3.72,0.52 -5.04,1.43 -1.32,0.929 -2.53,2.41 -3.56,4.797 v 0.011 l -84.99,197.551 -3.79,-1.621 3.82,1.539 c -1.24,3.082 -1.77,5.672 -1.77,7.691 0,1.641 0.32,2.899 0.89,4 v -0.011 c 0.66,1.25 1.42,1.992 2.57,2.601 1.16,0.602 2.84,1 5.15,1 2.46,0 4.16,-0.531 5.5,-1.422 1.33,-0.886 2.44,-2.226 3.37,-4.457 v -0.011 l 75.77,-183.578 3.81,1.57 v 4.117 h -4.03 v -4.117 l 3.8,-1.594 76.64,183.301 0.01,0.031 c 1.15,2.86 2.44,4.379 3.35,4.949 v 0 c 0.99,0.661 2.76,1.219 5.51,1.211 2.2,0 3.78,-0.39 4.89,-0.98 1.11,-0.602 1.87,-1.352 2.55,-2.621 v 0.011 c 0.69,-1.339 1.01,-2.652 1.01,-4.14 0,-1.551 -0.38,-3.34 -1.28,-5.41 l -85.57,-199.621 3.78,-1.618 -3.74,1.731 c -1.13,-2.453 -2.41,-4 -3.71,-4.934 z m 329.74,-2.18 v -4.121 c 4.83,-0.031 9.37,1.558 12.67,4.801 3.32,3.179 5.04,7.668 4.99,12.418 0.05,4.601 -1.71,8.98 -4.99,12.113 v 0.008 c -3.3,3.23 -7.83,4.832 -12.67,4.8 h -114 v 67.399 h 81.16 c 4.83,-0.027 9.37,1.562 12.66,4.812 l 0.59,0.571 -0.59,-0.571 c 3.29,3.129 5.04,7.5 5,12.118 0.04,4.742 -1.67,9.222 -4.99,12.402 l -0.01,0.008 c -3.29,3.242 -7.83,4.832 -12.66,4.801 h -81.16 v 65.66 h 114 c 4.83,-0.039 9.37,1.558 12.67,4.8 3.28,3.129 5.04,7.508 4.99,12.122 0.05,4.75 -1.67,9.226 -4.99,12.41 v 0.008 c -3.3,3.23 -7.83,4.832 -12.67,4.789 h -131.67 c -4.91,0.05 -9.53,-1.719 -12.86,-5.137 v 0 c -3.39,-3.371 -5.12,-8.012 -5.09,-12.942 v -199.3 c -0.03,-4.93 1.7,-9.571 5.09,-12.942 3.33,-3.418 7.95,-5.187 12.86,-5.148 h 131.67 v 4.121 4.121 h -131.67 c -3.15,0.039 -5.16,0.887 -7.01,2.707 -1.8,1.871 -2.66,3.922 -2.69,7.141 v 199.3 c 0.03,3.211 0.89,5.27 2.69,7.141 v 0 c 1.85,1.809 3.86,2.66 7.01,2.699 h 131.67 c 3.23,-0.031 5.23,-0.859 6.93,-2.468 h -0.01 c 1.67,-1.672 2.46,-3.493 2.5,-6.5 -0.04,-2.762 -0.79,-4.493 -2.49,-6.211 -1.7,-1.61 -3.69,-2.43 -6.93,-2.469 H 5659.5 v -82.141 h 89.4 c 3.23,-0.043 5.22,-0.871 6.92,-2.48 v 0.008 c 1.66,-1.68 2.45,-3.489 2.5,-6.5 -0.05,-2.77 -0.79,-4.5 -2.5,-6.207 v 0 c -1.7,-1.614 -3.69,-2.442 -6.92,-2.481 h -89.4 v -83.883 h 122.24 c 3.23,-0.039 5.23,-0.867 6.93,-2.476 l -0.01,0.008 c 1.71,-1.719 2.46,-3.461 2.5,-6.211 -0.04,-3.02 -0.83,-4.84 -2.49,-6.508 -1.7,-1.61 -3.69,-2.43 -6.93,-2.469 z m 136.56,3.93 2.99,-2.84 c 3.26,3.39 4.91,7.98 4.88,12.879 v 70.07 h 34.77 c 14.77,0 28.16,3.039 39.94,9.199 11.74,6.121 21.07,14.731 27.69,25.66 6.65,10.95 9.97,23.5 9.96,37.34 0.01,14.582 -3.28,27.68 -9.93,39.031 v 0.008 c -6.6,11.301 -15.91,20.223 -27.67,26.563 v 0 c -11.79,6.371 -25.2,9.519 -39.99,9.508 h -52.43 c -4.91,0.05 -9.54,-1.719 -12.87,-5.137 v 0 c -3.39,-3.371 -5.12,-8.012 -5.08,-12.942 v -199.3 c -0.04,-4.93 1.69,-9.571 5.08,-12.942 3.33,-3.418 7.96,-5.187 12.87,-5.148 4.9,-0.039 9.52,1.742 12.77,5.211 h 0.01 l -2.99,2.84 -2.98,2.839 c -1.74,-1.761 -3.65,-2.601 -6.81,-2.648 -3.16,0.039 -5.16,0.887 -7.02,2.707 -1.79,1.871 -2.65,3.922 -2.69,7.141 v 199.3 c 0.04,3.211 0.9,5.27 2.69,7.141 v 0 c 1.86,1.809 3.86,2.66 7.02,2.699 h 52.43 c 13.64,0 25.58,-2.871 36.08,-8.519 l 0.18,-0.102 -0.18,0.102 c 10.52,-5.692 18.59,-13.449 24.47,-23.481 v 0 c 5.84,-9.992 8.79,-21.511 8.8,-34.871 -0.01,-12.551 -2.94,-23.449 -8.76,-33.058 -5.87,-9.641 -13.93,-17.129 -24.46,-22.641 -10.5,-5.48 -22.47,-8.25 -36.13,-8.262 h -43.01 V 608.18 c -0.04,-3.25 -0.89,-5.352 -2.61,-7.2 v 0 z m 122.16,2.757 3.66,-1.886 c 1.24,2.379 1.9,4.988 1.89,7.629 0,3.757 -1.29,7.461 -3.49,10.988 l 0.01,-0.02 -50.32,81.782 -35.34,-9.871 55.91,-90.821 0.04,-0.058 c 1.81,-2.743 3.99,-4.969 6.63,-6.43 h -0.01 c 2.65,-1.473 5.7,-2.121 8.92,-2.121 3.4,0 6.59,0.66 9.34,2.191 2.76,1.508 4.96,3.879 6.42,6.731 v 0 l -3.66,1.886 -3.66,1.891 c -0.85,-1.609 -1.81,-2.578 -3.09,-3.301 -1.27,-0.707 -2.99,-1.148 -5.35,-1.156 -2.16,0.008 -3.72,0.418 -4.91,1.078 l -0.01,0.012 c -1.2,0.656 -2.47,1.84 -3.74,3.75 l -3.44,-2.274 3.51,2.161 -50.15,81.472 18.83,5.258 47.06,-76.5 0.01,-0.019 c 1.62,-2.598 2.25,-4.782 2.25,-6.629 0,-1.313 -0.3,-2.532 -0.97,-3.84 v -0.012 z m -118.41,194.653 v -4.121 h 38.89 c 8.67,-0.008 16.05,-1.758 22.39,-5.18 v 0 c 6.38,-3.449 11.29,-8.199 14.97,-14.461 l 0.35,-0.59 -0.35,0.59 c 3.64,-6.23 5.48,-13.238 5.48,-21.34 -0.01,-7.469 -1.81,-13.89 -5.41,-19.617 -3.65,-5.781 -8.55,-10.23 -14.96,-13.512 -6.36,-3.261 -13.77,-4.929 -22.47,-4.929 h -34.77 v 83.16 h -4.12 v -4.121 4.121 h -4.12 v -91.41 h 43.01 c 9.75,0 18.55,1.91 26.23,5.839 7.61,3.879 13.75,9.43 18.17,16.45 4.47,7.07 6.7,15.199 6.69,24.019 0,9.36 -2.19,17.961 -6.62,25.512 v 0 c -4.39,7.5 -10.52,13.43 -18.17,17.539 v 0 c -7.68,4.148 -16.52,6.172 -26.3,6.172 h -43.01 v -4.121 z m 299.63,-201.34 v -4.121 c 14.59,0 27.79,3.039 39.39,9.211 11.56,6.129 20.73,14.75 27.24,25.668 6.56,10.953 9.82,23.5 9.81,37.32 0.02,15.441 -4.13,28.582 -12.63,38.723 -8.33,9.988 -19.42,16.789 -32.81,20.258 l -1.03,-3.989 1.79,-3.711 c 9.44,4.551 17.12,11.141 22.8,19.602 v 0 c 5.74,8.519 8.64,18.297 8.63,28.918 0.01,12.301 -3.04,23.441 -9.14,33.051 h -0.01 c -6.04,9.531 -14.33,17.05 -24.62,22.39 v 0.008 c -10.35,5.383 -22.15,8.031 -35.18,8.02 h -69.15 c -4.91,0.05 -9.53,-1.719 -12.86,-5.137 l -2.9,-2.934 2.9,2.934 c -3.39,-3.371 -5.13,-8.012 -5.09,-12.942 v -199.3 c -0.04,-4.969 1.78,-9.641 5.29,-12.989 h -0.01 c 3.42,-3.382 8.05,-5.14 12.96,-5.101 h 74.62 v 4.121 4.121 h -74.62 c -3.15,0.039 -5.25,0.898 -7.21,2.758 v 0 c -1.88,1.89 -2.74,3.91 -2.79,7.09 v 199.3 c 0.04,3.211 0.9,5.27 2.7,7.141 v 0 c 1.85,1.809 3.86,2.66 7.01,2.699 h 69.15 c 11.93,0 22.32,-2.39 31.38,-7.101 h -0.01 c 9.11,-4.739 16.19,-11.188 21.48,-19.5 v 0 c 5.21,-8.239 7.84,-17.649 7.85,-28.629 -0.01,-9.16 -2.4,-17.129 -7.22,-24.32 v 0 c -4.89,-7.258 -11.32,-12.79 -19.55,-16.782 l -10.09,-4.867 10.85,-2.82 c 11.96,-3.129 21.33,-8.942 28.56,-17.571 7.06,-8.468 10.69,-19.402 10.71,-33.441 -0.01,-12.551 -2.9,-23.48 -8.64,-33.09 -5.78,-9.64 -13.7,-17.109 -24.04,-22.621 -10.3,-5.469 -22.06,-8.238 -35.52,-8.246 z m -61.37,107.359 v -4.121 h 61.37 c 8.37,0 15.66,-1.418 21.99,-4.168 l -0.01,0.008 c 6.28,-2.75 10.94,-6.598 14.34,-11.738 l 0.26,-0.379 -0.26,0.387 c 3.32,-5.039 5.08,-11.34 5.08,-19.27 0,-8.34 -1.78,-15.141 -5.16,-20.687 -3.44,-5.633 -8.13,-9.832 -14.39,-12.832 v 0 c -6.29,-3 -13.52,-4.54 -21.85,-4.54 h -57.24 v 77.34 h -4.13 v -4.121 4.121 h -4.12 v -85.582 h 65.49 c 9.34,-0.008 17.87,1.75 25.4,5.34 v 0 c 7.57,3.602 13.64,9 17.88,15.981 4.3,7.05 6.37,15.48 6.36,24.98 0.01,9.141 -2.08,17.199 -6.44,23.801 v 0.012 c -4.29,6.5 -10.38,11.468 -17.93,14.738 v 0 c -7.51,3.269 -15.97,4.851 -25.27,4.851 h -65.49 v -4.121 z m 0,93.981 v -4.121 h 55.61 c 10.48,-0.008 18.63,-2.559 25.01,-7.442 6.03,-4.699 9.12,-11.476 9.19,-21.898 -0.06,-10.629 -3.18,-17.711 -9.27,-22.692 -6.39,-5.136 -14.49,-7.789 -24.93,-7.808 h -51.48 v 63.961 h -4.13 v -4.121 4.121 h -4.12 v -72.199 h 59.73 c 11.83,-0.02 22.08,3.136 30.1,9.636 8.32,6.66 12.4,16.84 12.34,29.102 0.06,12.07 -4.05,22.082 -12.42,28.441 -8.03,6.168 -18.22,9.149 -30.02,9.141 h -59.73 v -4.121 z m 224.58,-199.16 2.14,-3.52 c 3.13,1.879 5.55,4.738 6.99,8.168 l 0.01,0.031 77.23,189.871 h -20.58 l 76.33,-189.863 0.02,-0.039 c 1.43,-3.418 3.85,-6.289 6.99,-8.168 v 0 c 2.97,-1.812 6.33,-2.793 9.77,-2.781 6.11,-0.11 11.69,2.859 14.85,8.019 1.87,2.911 2.89,6.231 2.88,9.61 0,2.519 -0.54,5.031 -1.51,7.5 l -0.02,0.043 -82.7,198.457 -3.8,-1.59 3.86,1.441 c -1.35,3.668 -3.47,6.782 -6.43,8.891 -2.94,2.129 -6.57,3.121 -10.4,3.098 -3.68,0.023 -7.22,-1 -10.11,-3.098 -2.9,-2.082 -5.08,-5.09 -6.63,-8.691 l -82.14,-197.899 3.81,-1.582 -3.75,1.699 c -1.16,-2.539 -1.8,-5.207 -1.8,-7.879 0,-3.289 0.97,-6.519 2.72,-9.461 1.59,-2.668 3.7,-4.886 6.28,-6.367 2.58,-1.492 5.56,-2.191 8.65,-2.191 3.3,0 6.54,0.988 9.48,2.781 v 0 l -2.14,3.52 -2.13,3.531 c -1.87,-1.121 -3.53,-1.582 -5.21,-1.59 -1.91,0.008 -3.33,0.398 -4.54,1.09 -1.21,0.699 -2.29,1.758 -3.3,3.437 -1.11,1.879 -1.56,3.551 -1.57,5.25 0.01,1.379 0.32,2.84 1.06,4.469 l 0.02,0.063 82.14,197.91 -3.8,1.578 3.78,-1.629 c 1.13,2.602 2.46,4.25 3.88,5.27 1.43,1.011 3.03,1.539 5.3,1.55 2.51,-0.011 4.22,-0.57 5.59,-1.55 1.37,-0.989 2.56,-2.532 3.52,-5.071 l 0.02,-0.07 82.72,-198.508 3.81,1.59 -3.84,-1.52 c 0.66,-1.66 0.94,-3.132 0.94,-4.472 -0.01,-1.797 -0.48,-3.418 -1.59,-5.188 -2.02,-2.98 -4.03,-4.09 -7.9,-4.199 -1.95,0.008 -3.68,0.488 -5.5,1.59 v 0 c -1.67,1.027 -2.8,2.328 -3.68,4.34 l -3.79,-1.614 3.82,1.543 -71.77,178.508 h 2.26 v 4.121 l -3.81,1.551 -74.91,-184.172 3.81,-1.551 -3.79,1.614 c -0.87,-2.012 -2,-3.313 -3.67,-4.34 v 0 z m 144.49,49.32 3.76,1.699 -11.47,25.41 H 6402 l -14.48,-31.23 h 148.24 l -2.62,5.82 -3.76,-1.699 v 4.117 h -128.96 l 6.84,14.754 h 109.09 l 9.28,-20.562 3.75,1.691 v 4.117 z m 141.89,-47.57 2.93,-2.903 c 3.39,3.371 5.12,8.012 5.08,12.942 v 151.699 l 122.23,-163.481 -0.01,0.012 c 1.64,-2.23 3.96,-3.879 6.59,-4.879 h -0.01 c 2.39,-0.922 4.76,-1.441 7.1,-1.441 4.91,-0.039 9.53,1.742 12.78,5.211 v 0 c 3.27,3.39 4.92,7.98 4.88,12.879 v 199.3 c 0.04,4.899 -1.61,9.489 -4.88,12.879 v 0 c -3.25,3.469 -7.87,5.25 -12.78,5.2 -4.77,0.05 -9.29,-1.77 -12.58,-5.137 v 0 c -3.38,-3.371 -5.12,-8.012 -5.08,-12.942 v -152 l -122.32,163.61 -0.11,0.121 c -3.49,4.078 -8.45,6.41 -13.76,6.348 -4.77,0.05 -9.29,-1.77 -12.58,-5.137 v 0 c -3.38,-3.371 -5.12,-8.012 -5.08,-12.942 v -199.3 c -0.04,-4.93 1.7,-9.571 5.08,-12.942 3.29,-3.379 7.81,-5.187 12.58,-5.148 4.91,-0.039 9.54,1.73 12.87,5.148 l -2.93,2.903 -2.93,2.898 c -1.85,-1.82 -3.85,-2.668 -7.01,-2.707 -2.91,0.047 -4.82,0.848 -6.72,2.707 -1.8,1.871 -2.66,3.922 -2.7,7.141 v 199.3 c 0.04,3.211 0.9,5.27 2.7,7.141 v 0 c 1.9,1.859 3.81,2.66 6.72,2.699 3.14,-0.05 5.29,-1.019 7.56,-3.531 l 3.1,2.711 -3.3,-2.469 137.07,-183.332 V 807.48 c 0.04,3.211 0.9,5.27 2.7,7.141 v 0 c 1.9,1.859 3.81,2.66 6.72,2.699 3.16,-0.039 5.07,-0.879 6.82,-2.648 v 0 c 1.72,-1.852 2.57,-3.942 2.6,-7.192 v -199.3 c -0.03,-3.25 -0.88,-5.352 -2.6,-7.2 v 0.008 c -1.75,-1.769 -3.66,-2.609 -6.82,-2.656 -1.11,0 -2.48,0.258 -4.13,0.887 h -0.01 c -1.4,0.551 -2.26,1.222 -2.92,2.101 l -0.01,0.02 -137.07,183.32 V 608.18 c -0.04,-3.219 -0.9,-5.27 -2.7,-7.141 z m 338.38,-3.93 v -4.121 c 16.98,0 32.61,2.851 46.79,8.601 14.12,5.719 26.44,13.911 36.83,24.5 10.38,10.579 18.38,23.11 23.95,37.469 v 0 c 5.57,14.391 8.34,30.192 8.34,47.309 0,17.121 -2.77,32.883 -8.35,47.179 v 0 c -5.56,14.262 -13.56,26.743 -23.94,37.321 v 0 c -10.39,10.59 -22.71,18.781 -36.83,24.5 -14.18,5.75 -29.81,8.601 -46.79,8.59 h -51.86 c -4.91,0.05 -9.53,-1.719 -12.86,-5.137 v 0 c -3.39,-3.371 -5.13,-8.012 -5.09,-12.942 v -199.3 c -0.04,-4.93 1.7,-9.571 5.09,-12.942 3.33,-3.418 7.95,-5.187 12.86,-5.148 h 51.86 v 4.121 4.121 h -51.86 c -3.15,0.039 -5.16,0.887 -7.01,2.707 -1.8,1.871 -2.66,3.922 -2.69,7.141 v 199.3 c 0.03,3.211 0.89,5.27 2.69,7.141 v 0 c 1.85,1.809 3.86,2.66 7.01,2.699 h 51.86 c 16.06,0 30.59,-2.679 43.69,-7.988 13.14,-5.332 24.45,-12.852 34.04,-22.633 v 0 c 9.59,-9.789 16.96,-21.258 22.16,-34.551 l 0.3,-0.757 -0.31,0.769 c 5.17,-13.25 7.79,-27.949 7.79,-44.191 0,-16.239 -2.62,-30.989 -7.79,-44.328 v 0 c -5.19,-13.391 -12.56,-24.903 -22.15,-34.68 -9.59,-9.781 -20.9,-17.301 -34.04,-22.641 -13.1,-5.3 -27.63,-7.988 -43.69,-7.988 z m -38.31,202.5 v -4.121 h 38.31 c 16.1,0 30.03,-3.621 42.13,-10.77 v 0 c 12.15,-7.211 21.61,-17.031 28.6,-29.718 l -0.01,0.007 c 6.93,-12.621 10.44,-27.25 10.44,-44.14 0,-16.688 -3.51,-31.27 -10.44,-43.989 v 0 c -6.99,-12.789 -16.46,-22.71 -28.61,-30.011 -12.09,-7.25 -26.02,-10.899 -42.11,-10.91 h -34.19 v 173.652 h -4.12 v -4.121 4.121 h -4.13 V 614.82 h 42.44 c 17.34,-0.011 32.89,4 46.35,12.078 13.39,8.024 23.98,19.153 31.6,33.133 v 0 c 7.66,14.039 11.46,30.098 11.46,47.938 0,18.031 -3.79,34.14 -11.46,48.101 v 0 c -7.63,13.891 -18.23,24.918 -31.62,32.84 v 0 c -13.46,7.981 -29,11.93 -46.33,11.922 h -42.44 v -4.121 h 4.13" style="fill:#939598;fill-opacity:1;fill-rule:nonzero;stroke:none" id="path98" inkscape:connector-curvature="0"></path></g></g></svg> 